<svg xmlns="http://www.w3.org/2000/svg" width="200" height="267" viewBox="0 0 200 267">
  <g fill="none" fill-rule="evenodd">
    <path fill="#339ECD" d="M107.259144,105.950653 L200,3.42781324 L196.581851,0 L94.3396226,92.7418461 C99.5825342,96.1025075 104.00967,100.627248 107.259144,105.950653"/>
    <path fill="#222321" d="M72.6534553,145.726781 C62.6260348,145.726781 54.497592,137.592371 54.497592,127.556584 C54.497592,117.538505 62.6260348,109.404095 72.6534553,109.404095 C82.6822396,109.404095 90.8052276,117.538505 90.8052276,127.556584 C90.8052276,137.592371 82.6822396,145.726781 72.6534553,145.726781 Z M82.0665208,97.5316373 L74.8681338,0.290275762 L70.0238656,0.290275762 L62.809114,97.6756966 C61.2254961,98.196762 59.6930177,98.8438366 58.2307708,99.5937621 L7.60954803,59.0977851 L4.1838877,62.524897 L44.6825705,113.142144 C43.8861591,114.69342 43.2022543,116.309063 42.666654,117.997247 L0,125.109279 L0,129.953144 L42.6448345,137.057002 C43.198845,138.815002 43.9079785,140.49944 44.7476881,142.108272 L19.9164237,176.87321 L23.3383338,180.296916 L58.1022403,155.466958 C59.6418783,156.273077 61.2602709,156.956252 62.9427584,157.502178 L70.0238656,200 L74.8681338,200 L81.9199211,157.646578 C83.7152562,157.09384 85.4321775,156.378312 87.0771627,155.535412 L137.698726,196.034113 L141.118591,192.610407 L100.625704,141.988733 C101.41666,140.437457 102.096815,138.821813 102.632415,137.144868 L199.709724,129.953144 L199.709724,125.109279 L102.607187,117.918236 C99.4907493,108.221311 91.8007419,100.581402 82.0665208,97.5316373 L82.0665208,97.5316373 Z"/>
    <path fill="#339ECD" d="M18.5823546 238.446706C18.5823546 239.281457 18.807095 239.962754 19.2565759 240.490596 19.7063972 241.018438 20.3114938 241.450029 21.0722061 241.786395L23.2855588 242.795152 23.9774869 242.064531C24.4845149 241.507917 24.8648711 240.933833 25.1185553 240.342622 25.3718991 239.751069 25.4989115 239.072855 25.4989115 238.307296 25.4989115 237.820558 25.4096963 237.400271 25.2309255 237.046435 25.0521547 236.692942 24.8015351 236.402817 24.4787261 236.176746 24.1559172 235.950674 23.775561 235.785231 23.3376577 235.681102 22.8994139 235.576629 22.4209892 235.524222 21.9023836 235.524222 21.4181701 235.524222 20.9741375 235.585193 20.5709668 235.707134 20.1671151 235.828733 19.8187674 236.011303 19.5249023 236.254843 19.2306967 236.498383 18.999827 236.802895 18.8329742 237.168034 18.665781 237.533516 18.5823546 237.959626 18.5823546 238.446706zM20.2423691 246.239313L19.6890309 246.795928C19.1356928 247.352543 18.6742938 247.961223 18.3055152 248.62231 17.9363961 249.283054 17.7521771 250.066083 17.7521771 250.970368 17.7521771 251.492387 17.8444568 251.953093 18.0290164 252.35317 18.2132355 252.753248 18.4699844 253.086874 18.7985821 253.353364 19.1271799 253.620539 19.518773 253.822976 19.9743832 253.962386 20.4296528 254.101454 20.9339567 254.170989 21.4872949 254.170989 22.040633 254.170989 22.547661 254.107278 23.00906 253.979513 23.4697778 253.852091 23.8651167 253.657875 24.1933739 253.396866 24.5219716 253.135856 24.7753154 252.805655 24.9544267 252.405578 25.132857 252.0055 25.2224126 251.526983 25.2224126 250.970368 25.2224126 250.066083 25.0000558 249.321075 24.5567043 248.735345 24.1126717 248.149958 23.516088 247.68891 22.7669532 247.352543L20.2423691 246.239313zM21.4872949 258.345428C20.2767612 258.345428 19.1414815 258.203277 18.0807748 257.919318 17.0200681 257.635359 16.0979513 257.203426 15.314084 256.623519 14.5302166 256.043954 13.9104778 255.30751 13.4552082 254.414529 12.9995981 253.521548 12.7721335 252.466206 12.7721335 251.248847 12.7721335 250.552821 12.8759908 249.90064 13.083365 249.29196 13.2910796 248.682938 13.5617897 248.120843 13.8961762 247.604647 14.2305627 247.088793 14.6139835 246.621922 15.046098 246.204375 15.4785531 245.786828 15.919521 245.427855 16.3690019 245.126084L17.0261974 244.708537C16.5419839 244.407109 16.0775204 244.059096 15.6341688 243.664842 15.1901362 243.27093 14.7954784 242.818445 14.4495143 242.308072 14.1038908 241.798041 13.8297756 241.220875 13.6281902 240.577257 13.4262644 239.933981 13.3254717 239.223569 13.3254717 238.446706 13.3254717 237.333477 13.5648543 236.336366 14.043279 235.454688 14.5213632 234.573695 15.1584682 233.828345 15.9539131 233.219665 16.749358 232.610986 17.6629619 232.147197 18.6947248 231.827957 19.7261471 231.509402 20.7957073 231.349782 21.9023836 231.349782 23.0781847 231.349782 24.1875851 231.48337 25.2309255 231.74986 26.2742659 232.016692 27.1851457 232.422593 27.9632243 232.967562 28.7413029 233.51253 29.3552529 234.20239 29.8047337 235.037484 30.2542146 235.872235 30.478955 236.858042 30.478955 237.994221 30.478955 238.666955 30.3982528 239.278717 30.2368483 239.829509 30.0754438 240.380301 29.8507034 240.887933 29.562627 241.351379 29.2742101 241.81551 28.9370995 242.24162 28.5509546 242.630052 28.1644691 243.018483 27.7469968 243.386705 27.2975159 243.734376L26.5364631 244.325929C27.1129563 244.639003 27.6431394 244.998662 28.1273529 245.40422 28.6115664 245.810463 29.0266551 246.280075 29.3722787 246.813397 29.7182427 247.34672 29.9889528 247.9554 30.1850899 248.639779 30.3808865 249.324158 30.478955 250.100679 30.478955 250.970368 30.478955 252.176766 30.2368483 253.240329 29.7529753 254.162425 29.2687619 255.084179 28.6173551 255.855562 27.7987552 256.475545 26.9801552 257.096213 26.0263704 257.562742 24.9370604 257.875817 23.8477504 258.188891 22.6978285 258.345428 21.4872949 258.345428L21.4872949 258.345428zM32.2206096 240.394784L34.9705014 240.394784 34.9705014 236.531579 38.40812 235.703919 40.1954651 235.703919 40.1954651 240.394784 45.2830189 240.394784 45.2830189 244.534103 40.1954651 244.534103 40.1954651 251.570741C40.1954651 252.329457 40.372812 252.910212 40.7285211 253.312664 41.0832148 253.715117 41.6504541 253.916173 42.4299003 253.916173 42.9111737 253.916173 43.3778938 253.850287 43.8307375 253.717834 44.2829044 253.585721 44.6755043 253.422023 45.0078605 253.2264L45.2830189 253.2264 45.2830189 257.227492C45.0078605 257.365379 44.6755043 257.486285 44.2859504 257.58953 43.896058 257.693115 43.4868741 257.779379 43.0570449 257.848322 42.6275541 257.917266 42.1977248 257.969228 41.768234 258.00353 41.3384048 258.038171 40.9518969 258.055152 40.6080335 258.055152 39.7487135 258.055152 38.9719748 257.951907 38.2791713 257.744737 37.5856909 257.537907 36.9927296 257.221719 36.5002874 256.796172 36.0075068 256.370965 35.6294601 255.839116 35.3658089 255.200965 35.1021578 254.562815 34.9705014 253.812589 34.9705014 252.950287L34.9705014 244.534103 32.2206096 244.534103 32.2206096 240.394784M60.3111346 248.935949C60.3111346 248.384141 60.2820018 247.869686 60.2244219 247.392584 60.1661564 246.915822 60.0557948 246.510371 59.8936798 246.176909 59.6613035 245.671283 59.3161664 245.291979 58.8579259 245.038656 58.3993426 244.786013 57.7700758 244.659352 56.9694401 244.659352 56.3429152 244.659352 55.7568334 244.78024 55.2118801 245.021678 54.6662414 245.263115 54.1846947 245.556167 53.7672399 245.900835L53.7672399 257.764877 48.4760522 257.764877 48.4760522 230.726285 51.9568983 229.898403 53.7672399 229.898403 53.7672399 241.762445 54.0455431 241.762445C54.8115623 241.210637 55.5710694 240.796696 56.3257783 240.520962 57.0798017 240.244888 57.9441866 240.107021 58.9189332 240.107021 60.0674479 240.107021 61.1350765 240.325707 62.1214761 240.762399 63.1075331 241.199431 63.8965157 241.900312 64.488424 242.866061 64.8366457 243.44096 65.1087796 244.099055 65.3065394 244.840345 65.5036137 245.581975 65.6023222 246.441437 65.6023222 247.418392L65.6023222 257.764877 60.3111346 257.764877 60.3111346 248.935949"/>
    <polyline fill="#222321" points="80.406 258.055 80.406 232.511 86.038 232.511 86.038 253.613 95.791 253.613 95.791 258.055 80.406 258.055"/>
    <path fill="#222321" d="M97.8229318 240.800313L101.269872 239.96523 103.06224 239.96523 103.06224 258.055152 97.8229318 258.055152 97.8229318 240.800313zM100.580552 236.068976C99.6841978 236.068976 99.0006475 235.842908 98.5295612 235.390771 98.0581355 234.938634 97.8229318 234.318316 97.8229318 233.529475 97.8229318 232.775913 98.0581355 232.175805 98.5295612 231.729491 99.0006475 231.283177 99.6841978 231.059507 100.580552 231.059507 101.476905 231.059507 102.160116 231.283177 102.631542 231.729491 103.102628 232.175805 103.338171 232.775913 103.338171 233.529475 103.338171 234.318316 103.102628 234.938634 102.631542 235.390771 102.160116 235.842908 101.476905 236.068976 100.580552 236.068976L100.580552 236.068976zM114.115163 249.237855C115.099585 249.237855 115.855439 248.997507 116.382722 248.516468 116.909664 248.035771 117.173135 247.3024 117.173135 246.317041 117.173135 245.332023 116.909664 244.598995 116.382722 244.117614 115.855439 243.636917 115.099585 243.396226 114.115163 243.396226 113.130398 243.396226 112.374545 243.636917 111.847603 244.117614 111.320319 244.598995 111.056849 245.332023 111.056849 246.317041 111.056849 247.3024 111.320319 248.035771 111.847603 248.516468 112.374545 248.997507 113.130398 249.237855 114.115163 249.237855zM112.464535 258.522422C112.383099 258.522422 112.296188 258.510439 112.203802 258.4875L111.473954 258.974359C111.056849 259.252369 110.720838 259.594403 110.466264 260.000119 110.211347 260.405835 110.08406 260.851952 110.08406 261.338811 110.08406 261.791091 110.179525 262.182085 110.370456 262.512478 110.561729 262.842871 110.819383 263.118142 111.14376 263.33829 111.467795 263.558438 111.838707 263.720725 112.255812 263.82515 112.672917 263.929575 113.10713 263.981616 113.559137 263.981616 114.288985 263.981616 114.951768 263.900473 115.548512 263.738186 116.144914 263.575557 116.657485 263.355752 117.086224 263.077399 117.51462 262.79939 117.844814 262.474817 118.076805 262.104023 118.308454 261.732887 118.42445 261.338811 118.42445 260.921454 118.42445 260.620163 118.395365 260.359272 118.337539 260.139124 118.27937 259.918976 118.172271 259.730669 118.015899 259.574203 117.859527 259.417737 117.644987 259.293112 117.372962 259.200327 117.100595 259.107543 116.756372 259.032221 116.339267 258.974359L112.724927 258.557002C112.632199 258.53372 112.545287 258.522422 112.464535 258.522422zM113.280953 266.763425C112.168901 266.763425 111.117755 266.67338 110.127173 266.493975 109.136934 266.313885 108.268164 266.033136 107.520866 265.650701 106.773909 265.268267 106.179902 264.778326 105.739871 264.181564 105.299499 263.584459 105.079826 262.868892 105.079826 262.034178 105.079826 261.431595 105.20985 260.878315 105.470584 260.373994 105.731317 259.869674 106.07862 259.429035 106.513175 259.052421 106.947731 258.675807 107.448325 258.362874 108.016327 258.113624 108.583645 257.864374 109.180389 257.687708 109.805876 257.583283L109.805876 257.513781C109.458231 257.235771 109.186206 256.896818 108.989116 256.496922 108.792026 256.097027 108.693824 255.624889 108.693824 255.079826 108.693824 254.731971 108.763284 254.40192 108.902205 254.088646 109.041468 253.775714 109.220765 253.497704 109.441123 253.254274 109.660796 253.010844 109.901341 252.805076 110.162075 252.636969 110.422808 252.469205 110.674645 252.35622 110.917928 252.298016L110.917928 252.054587C109.400062 251.672152 108.209996 250.991508 107.347043 250.011626 106.484091 249.032429 106.052615 247.800901 106.052615 246.317041 106.052615 245.343322 106.246625 244.46855 106.634646 243.691697 107.022666 242.91553 107.570138 242.257482 108.276719 241.718581 108.983299 241.179338 109.831881 240.768144 110.822462 240.483972 111.812702 240.200141 112.910041 240.058055 114.115163 240.058055 115.076318 240.058055 115.968355 240.150839 116.790931 240.336065 117.613165 240.521633 118.354647 240.788344 119.015035 241.135856L119.258318 241.031774 119.675423 241.031774 123.1505 240.336065 124.818578 240.336065 124.818578 243.535231 121.517323 243.535231C121.725704 243.94129 121.887893 244.375766 122.003546 244.839344 122.1192 245.302921 122.177369 245.795601 122.177369 246.317041 122.177369 247.255837 121.980279 248.102192 121.586783 248.85542 121.192604 249.608991 120.639657 250.252317 119.92726 250.785397 119.214862 251.31882 118.363544 251.727275 117.372962 252.011105 116.382722 252.295277 115.296675 252.437021 114.115163 252.437021L113.315854 252.437021C113.222784 252.576026 113.147849 252.738655 113.090022 252.923881 113.031853 253.109449 113.003111 253.317956 113.003111 253.549745 113.003111 253.967102 113.147849 254.262573 113.437324 254.4365 113.7268 254.610428 114.184623 254.731971 114.81011 254.801474L118.702292 255.218831C119.489967 255.300316 120.193468 255.46226 120.81348 255.70569 121.432807 255.94912 121.957353 256.270611 122.386092 256.670507 122.814489 257.070403 123.141945 257.557262 123.367778 258.131086 123.59361 258.704909 123.706526 259.368092 123.706526 260.122005 123.706526 261.083741 123.431079 261.970496 122.881212 262.781928 122.331003 263.593018 121.580624 264.294548 120.631103 264.885832 119.680897 265.476774 118.574662 265.937613 117.312398 266.268006 116.049449 266.5984 114.705748 266.763425 113.280953 266.763425L113.280953 266.763425zM138.395315 248.935949C138.395315 248.384141 138.366182 247.869686 138.308602 247.392584 138.250336 246.915822 138.139975 246.510371 137.97786 246.176909 137.745483 245.671283 137.400346 245.291979 136.942106 245.038656 136.483523 244.786013 135.854256 244.659352 135.05362 244.659352 134.427095 244.659352 133.841013 244.78024 133.29606 245.021678 132.750421 245.263115 132.268875 245.556167 131.85142 245.900835L131.85142 257.764877 126.560232 257.764877 126.560232 230.726285 130.041078 229.898403 131.85142 229.898403 131.85142 241.762445 132.129723 241.762445C132.895742 241.210637 133.655249 240.796696 134.409958 240.520962 135.163982 240.244888 136.028367 240.107021 137.003113 240.107021 138.151971 240.107021 139.219256 240.325707 140.205656 240.762399 141.191713 241.199431 141.980696 241.900312 142.572604 242.866061 142.920826 243.44096 143.19296 244.099055 143.390719 244.840345 143.587794 245.581975 143.686502 246.441437 143.686502 247.418392L143.686502 257.764877 138.395315 257.764877 138.395315 248.935949M146.008708 240.394784L148.758671 240.394784 148.758671 236.531579 152.196379 235.703919 153.98377 235.703919 153.98377 240.394784 159.071118 240.394784 159.071118 244.534103 153.98377 244.534103 153.98377 251.570741C153.98377 252.329457 154.161122 252.910212 154.516502 253.312664 154.871543 253.715117 155.438797 253.916173 156.217925 253.916173 156.699211 253.916173 157.165943 253.850287 157.618799 253.717834 158.071316 253.585721 158.463587 253.422023 158.79629 253.2264L159.071118 253.2264 159.071118 257.227492C158.79629 257.365379 158.463587 257.486285 158.074362 257.58953 157.684459 257.693115 157.274926 257.779379 156.845424 257.848322 156.415584 257.917266 155.986082 257.969228 155.556242 258.00353 155.12674 258.038171 154.739883 258.055152 154.39635 258.055152 153.537007 258.055152 152.760587 257.951907 152.067427 257.744737 151.373929 257.537907 150.780952 257.221719 150.288497 256.796172 149.795704 256.370965 149.417647 255.839116 149.153989 255.200965 148.890331 254.562815 148.758671 253.812589 148.758671 252.950287L148.758671 244.534103 146.008708 244.534103 146.008708 240.394784"/>
  </g>
</svg>
