<?xml version="1.0" encoding="UTF-8" standalone="no"?>
<svg width="810px" height="177px" viewBox="0 0 810 177" version="1.1" xmlns="http://www.w3.org/2000/svg" xmlns:xlink="http://www.w3.org/1999/xlink">
    <!-- Generator: Sketch 3.8.3 (29802) - http://www.bohemiancoding.com/sketch -->
    <title>WindyCityRails-LightBG</title>
    <desc>Created with Sketch.</desc>
    <defs></defs>
    <g id="Page-1" stroke="none" stroke-width="1" fill="none" fill-rule="evenodd">
        <g id="LightBG" transform="translate(-39.000000, -25.000000)">
            <g id="WindyCityRails-LightBG" transform="translate(39.000000, 25.000000)">
                <g id="Group-2">
                    <g id="windycityrails" transform="translate(178.000000, 12.000000)" fill="#010101">
                        <path d="M82.5123534,16.229229 L68.8322308,16.229229 L68.8322308,2.12075822 L82.4748736,2.12075822 L82.4748736,16.229229 L82.5123534,16.229229 Z M82.5123534,138.296491 L68.8322308,138.296491 L68.8322308,29.1780995 L82.4748736,29.1780995 L82.4748736,138.296491 L82.5123534,138.296491 Z" id="Shape"></path>
                        <path d="M96.1549961,29.1780995 L123.477761,29.1780995 C127.102505,29.1678296 130.582201,30.6456461 133.148804,33.2853626 C135.715408,35.9250792 137.157898,39.5096626 137.157884,43.247917 L137.157884,138.064571 L123.477761,138.064571 L123.477761,43.247917 L109.835119,43.247917 L109.835119,138.064571 L96.1549961,138.064571 L96.1549961,29.1780995 L96.1549961,29.1780995 Z" id="Shape"></path>
                        <path d="M191.803414,138.064571 L164.480649,138.064571 C160.855906,138.074841 157.37621,136.597025 154.809606,133.957308 C152.243002,131.317592 150.800513,127.733008 150.800527,123.994754 L150.800527,43.247917 C150.800513,39.5096626 152.243002,35.9250792 154.809606,33.2853626 C157.37621,30.6456461 160.855906,29.1678296 164.480649,29.1780995 L178.160772,29.1780995 L178.160772,2.12075822 L191.803414,2.12075822 L191.803414,138.064571 L191.803414,138.064571 Z M164.480649,123.994754 L178.160772,123.994754 L178.160772,43.247917 L164.480649,43.247917 L164.480649,123.994754 L164.480649,123.994754 Z" id="Shape"></path>
                        <path d="M246.486425,164.735379 L232.656383,164.735379 L232.656383,138.064571 L219.163659,138.064571 C215.538916,138.074841 212.05922,136.597025 209.492616,133.957308 C206.926013,131.317592 205.483523,127.733008 205.483537,123.994754 L205.483537,29.1780995 L219.163659,29.1780995 L219.163659,123.994754 L232.656383,123.994754 L232.656383,29.1780995 L246.336505,29.1780995 L246.336505,164.735379 L246.486425,164.735379 Z" id="Shape"></path>
                        <path d="M260.166547,22.1045374 C260.166547,10.4273713 269.345356,0.96115788 280.667991,0.96115788 C291.990626,0.96115788 301.169435,10.4273713 301.169435,22.1045374 L301.169435,37.5658753 L287.489312,37.5658753 L287.489312,16.229229 L273.884149,16.229229 L273.884149,123.994754 L287.564272,123.994754 L287.564272,102.658108 L301.244394,102.658108 L301.244394,118.119446 C301.244394,129.796612 292.065585,139.262825 280.742951,139.262825 C269.420316,139.262825 260.241507,129.796612 260.241507,118.119446 L260.241507,22.1045374 L260.166547,22.1045374 Z" id="Shape"></path>
                        <path d="M325.156499,16.229229 L311.363937,16.229229 L311.363937,2.12075822 L325.04406,2.12075822 L325.04406,16.229229 L325.156499,16.229229 Z M325.156499,138.296491 L311.363937,138.296491 L311.363937,29.1780995 L325.04406,29.1780995 L325.04406,138.296491 L325.156499,138.296491 Z" id="Shape"></path>
                        <polygon id="Shape" points="366.159387 43.247917 352.479264 43.247917 352.479264 138.296491 338.799142 138.296491 338.799142 2.12075822 352.479264 2.12075822 352.479264 29.1394461 366.159387 29.1394461"></polygon>
                        <path d="M413.946116,164.735379 L400.303473,164.735379 L400.303473,138.064571 L386.623351,138.064571 C382.998608,138.074841 379.518912,136.597025 376.952308,133.957308 C374.385704,131.317592 372.943215,127.733008 372.943228,123.994754 L372.943228,29.1780995 L386.623351,29.1780995 L386.623351,123.994754 L400.303473,123.994754 L400.303473,29.1780995 L413.946116,29.1780995 L413.946116,164.735379 L413.946116,164.735379 Z" id="Shape"></path>
                        <path d="M427.551279,2.12075822 L454.874044,2.12075822 C458.544049,2.04794158 462.087669,3.50341115 464.704306,6.15833768 C467.320944,8.8132642 468.789809,12.4436264 468.779046,16.229229 L468.779046,59.2504016 C469.195394,63.8437142 466.74274,68.204301 462.66984,70.1119915 C465.855622,71.4262052 468.779046,74.2865527 468.779046,82.7129819 L468.779046,127.976048 C468.986651,131.587951 470.1394,135.074336 472.114747,138.064571 L457.909907,138.064571 C456.185213,134.980675 455.172081,131.528688 454.949004,127.976048 L454.949004,77.1469002 L441.268881,77.1469002 L441.268881,138.064571 L427.551279,138.064571 L427.551279,2.12075822 L427.551279,2.12075822 Z M441.193922,63.0384294 L454.874044,63.0384294 L454.874044,16.229229 L441.193922,16.229229 L441.193922,63.0384294 L441.193922,63.0384294 Z" id="Shape"></path>
                        <path d="M523.274657,138.064571 L495.951892,138.064571 C492.327148,138.074841 488.847452,136.597025 486.280849,133.957308 C483.714245,131.317592 482.271755,127.733008 482.271769,123.994754 L482.271769,72.0060054 C482.261779,68.2610574 483.699866,64.6665236 486.267555,62.0184355 C488.835244,59.3703473 492.320644,57.8872321 495.951892,57.8975346 L509.632014,57.8975346 L509.632014,43.247917 L485.270152,43.247917 L485.270152,29.1780995 L509.632014,29.1780995 C517.166638,29.1780995 523.274657,35.4773713 523.274657,43.247917 L523.274657,138.064571 L523.274657,138.064571 Z M495.951892,123.994754 L509.632014,123.994754 L509.632014,72.0060054 L495.951892,72.0060054 L495.951892,123.994754 L495.951892,123.994754 Z" id="Shape"></path>
                        <path d="M550.597422,16.229229 L536.954779,16.229229 L536.954779,2.12075822 L550.597422,2.12075822 L550.597422,16.229229 L550.597422,16.229229 Z M550.597422,138.296491 L536.954779,138.296491 L536.954779,29.1780995 L550.597422,29.1780995 L550.597422,138.296491 L550.597422,138.296491 Z" id="Shape"></path>
                        <polygon id="Shape" points="564.277545 9.77412046 564.277545 0.999811224 577.957667 15.0696287 577.957667 138.064571 564.277545 138.064571"></polygon>
                        <path d="M617.273964,43.247917 L603.706281,43.247917 L603.706281,76.5671001 L617.348924,76.5671001 C620.973667,76.5568301 624.453363,78.0346466 627.019967,80.6743632 C629.586571,83.3140797 631.02906,86.8986631 631.029047,90.6369175 L631.029047,118.042139 C631.029047,129.719305 621.850238,139.185518 610.527603,139.185518 C599.204968,139.185518 590.026159,129.719305 590.026159,118.042139 L590.026159,109.770323 L603.706281,109.770323 L603.706281,123.878794 L617.348924,123.878794 L617.348924,90.6755709 L603.706281,90.6755709 C600.081538,90.6858408 596.601842,89.2080243 594.035238,86.5683077 C591.468635,83.9285912 590.026145,80.3440078 590.026159,76.6057534 L590.026159,49.1618787 C590.026159,37.4847126 599.204968,28.0184991 610.527603,28.0184991 C621.850238,28.0184991 631.029047,37.4847126 631.029047,49.1618787 L631.029047,57.3563878 L617.348924,57.3563878 L617.348924,43.247917 L617.273964,43.247917 Z" id="Shape"></path>
                        <path d="M0.019340587,2.23671825 L13.8493823,2.23671825 C13.8493823,26.6269787 14.598978,51.1718526 14.598978,75.6780731 C14.598978,84.4523824 14.2241801,93.1880383 14.2241801,101.962348 L14.598978,101.962348 C16.9976844,79.5047543 20.5207845,64.4686032 22.7320919,49.0459187 L34.013508,49.0459187 C36.2248155,64.5072565 39.7479156,79.5047543 42.146622,101.962348 L42.5214199,101.962348 C42.5214199,93.1880383 42.146622,84.4523824 42.146622,75.6780731 C42.146622,51.2878126 42.7088188,26.7429388 42.8962177,2.23671825 L56.7637392,2.23671825 L52.4535636,138.180531 L39.7104358,138.180531 C35.962457,117.810219 30.6778069,97.6331729 28.4664995,68.6045111 L28.0917016,68.6045111 C26.0677931,97.7491329 20.8955823,117.926179 16.8477653,138.180531 L4.10463745,138.180531 L0.019340587,2.23671825 Z" id="Shape"></path>
                    </g>
                    <path d="M141,163.709677 C141,169.94515 136.047501,175 129.938285,175 L0,175 L0,11.2903226 C-7.48163276e-16,5.0548496 4.95249871,1.1454378e-15 11.0617155,0 L141,0 L141,163.709677 L141,163.709677 Z" id="mark-fill" fill="#FFFFFF"></path>
                    <g id="mark" fill="#B30000">
                        <polygon id="Shape" points="71.6047915 125.923145 88.7412959 120.731214 75.8428518 133.372438 88.8150013 145.938417 71.6416442 140.859354 67.4772894 158.579641 63.2023765 140.896976 46.0658721 146.051285 58.9274635 133.447684 45.9921667 120.881705 63.1655238 125.960768 67.3298786 108.202858"></polygon>
                        <polygon id="Shape" points="68.8408392 69.8277138 81.8129888 65.9149539 72.0838766 75.4711174 81.8866942 84.9896581 68.8776919 81.1521436 65.7452126 94.5458215 62.5021752 81.1521436 49.5300256 85.0649035 59.2591378 75.50874 49.4563202 65.9901993 62.4653225 69.8277138 65.6346545 56.3964132"></polygon>
                        <polygon id="Shape" points="83.618771 37.4345772 90.6576362 35.3277065 85.3508478 40.5196378 90.6944889 45.6363237 83.6556237 43.5670757 81.9235469 50.828255 80.1914701 43.5670757 73.1526048 45.7115691 78.4225406 40.5196378 73.1157521 35.3653292 80.1546174 37.4721998 81.8866942 30.1733979"></polygon>
                        <polygon id="Shape" points="106.983381 19.6014218 111.737379 18.1717596 108.162668 21.6706698 111.774232 25.2072027 106.983381 23.7775405 105.840948 28.7061129 104.624809 23.7775405 99.8708106 25.2448254 103.445522 21.7082925 99.8339579 18.2093823 104.624809 19.6014218 105.804095 14.6728493"></polygon>
                        <path d="M113.506309,0 L97.991323,0 C61.2491835,8.46510539 3.68526976,38.3375217 7.8496246,142.665243 L9.4711433,174.945511 L26.5339423,174.945511 C8.51297316,37.9989175 73.7053953,6.62159355 113.506309,0 L113.506309,0 Z M140.924716,103.010927 L140.924716,33.1455904 C116.675641,49.6243289 126.662722,79.3086318 140.924716,103.010927 L140.924716,103.010927 Z M129.868907,174.945511 L129.868907,174.945511 C135.974861,174.945511 140.924716,169.892236 140.924716,163.658704 L140.924716,155.645071 C80.4125863,49.6995743 129.463527,28.3675087 140.924716,24.9814666 L140.924716,18.8113453 C57.7481772,50.4144054 120.545174,159.708322 129.795201,174.945511 L129.868907,174.945511 Z M68.8776919,0 L11.0558093,0 C4.94985442,-3.81693719e-16 7.47763809e-16,5.0532757 0,11.2868072 L0,55.6815821 C15.8429844,29.4405175 40.2265742,9.72852043 68.8776919,1.45734055e-14 L68.8776919,0 Z" id="Shape"></path>
                    </g>
                </g>
            </g>
        </g>
    </g>
</svg>