<?xml version="1.0" encoding="UTF-8" standalone="no"?>
<svg width="960px" height="176px" viewBox="0 0 960 176" version="1.1" xmlns="http://www.w3.org/2000/svg" xmlns:xlink="http://www.w3.org/1999/xlink">
    <!-- Generator: Sketch 3.8.3 (29802) - http://www.bohemiancoding.com/sketch -->
    <title>WindyCityThings-Horizontal</title>
    <desc>Created with Sketch.</desc>
    <defs></defs>
    <g id="Page-1" stroke="none" stroke-width="1" fill="none" fill-rule="evenodd">
        <g id="WindyCityThings-Horizontal" transform="translate(-30.000000, -22.000000)">
            <g transform="translate(30.000000, 22.000000)" id="Group">
                <g>
                    <g id="things" transform="translate(683.000000, 53.000000)" fill="#42A5D0">
                        <path d="M83.4431,18.9365 C77.2691,18.9365 73.3321,22.4265 70.6471,26.2745 L70.6471,3.5465 L54.8981,3.5465 L54.8981,68.3305 L70.6471,68.3305 L70.6471,39.7855 C70.6471,35.3115 73.0631,32.8965 76.4631,32.8965 C79.7741,32.8965 82.0121,35.3115 82.0121,39.7855 L82.0121,68.3305 L97.7611,68.3305 L97.7611,34.9545 C97.7611,25.1115 92.4811,18.9365 83.4431,18.9365" id="Fill-18"></path>
                        <polygon id="Fill-17" points="0.1332 20.1896 15.6132 20.1896 15.6132 68.3306 31.7202 68.3306 31.7202 20.1896 47.2002 20.1896 47.2002 5.6936 0.1332 5.6936"></polygon>
                        <polygon id="Fill-19" points="107.695 68.331 123.355 68.331 123.355 19.921 107.695 19.921"></polygon>
                        <path d="M162.1899,18.9365 C156.0159,18.9365 152.0789,22.5165 149.3939,26.3635 L149.3939,19.9205 L133.6449,19.9205 L133.6449,68.3305 L149.3939,68.3305 L149.3939,39.7855 C149.3939,35.3115 151.8099,32.8965 155.2099,32.8965 C158.5209,32.8965 160.7589,35.3115 160.7589,39.7855 L160.7589,68.3305 L176.5079,68.3305 L176.5079,34.9545 C176.5079,25.1115 171.2279,18.9365 162.1899,18.9365" id="Fill-20"></path>
                        <path d="M215.8815,41.8437 C215.8815,47.7497 212.7495,51.6877 208.0065,51.6877 C203.3545,51.6877 200.2215,47.8387 200.2215,41.8437 L200.2215,41.5757 C200.2215,35.6697 203.2645,31.6427 208.0065,31.6427 C212.7495,31.6427 215.8815,35.5807 215.8815,41.5757 L215.8815,41.8437 Z M215.7015,25.6477 C212.5705,21.8897 208.8125,18.9367 202.4595,18.9367 C192.9745,18.9367 184.6525,26.3637 184.6525,41.3967 L184.6525,42.1127 C184.6525,56.8767 192.8855,64.3037 202.8165,64.3037 C208.9905,64.3037 212.9285,61.1727 215.8815,57.3237 L215.8815,59.7397 C215.8815,66.6307 212.2125,70.1197 204.9645,70.1197 C199.5065,70.1197 194.4055,68.5987 190.3795,66.3617 L185.9945,77.6367 C192.1685,80.4997 198.7015,82.0217 206.5755,82.0217 C215.4345,82.0217 221.6085,79.9637 225.7245,75.9367 C229.5725,72.0887 231.3615,66.4507 231.3615,58.4877 L231.3615,19.9207 L215.7015,19.9207 L215.7015,25.6477 Z" id="Fill-21"></path>
                        <path d="M261.5195,38.1749 C256.7775,36.2069 254.3615,35.2229 254.3615,33.4329 L254.3615,33.2539 C254.3615,31.9119 255.5255,30.7479 258.0305,30.7479 C261.5195,30.7479 266.0835,32.4479 269.9305,34.8649 L275.6575,24.2159 C270.2885,20.7269 263.9365,19.0269 257.9405,19.0269 C247.3815,19.0269 239.9545,24.8429 239.9545,34.5959 L239.9545,34.7749 C239.9545,43.5439 246.2185,46.9449 254.7195,50.0769 C259.5515,51.9549 261.7885,52.8499 261.7885,54.7299 L261.7885,54.9079 C261.7885,56.4299 260.5365,57.5929 257.8515,57.5929 C253.5565,57.5929 248.5455,55.6239 243.8025,52.3129 L237.8965,62.7829 C244.1605,67.4349 251.3185,69.3149 257.9405,69.3149 C268.8575,69.3149 276.1945,63.5879 276.1945,53.4769 L276.1945,53.2969 C276.1945,45.0659 270.2885,41.4859 261.5195,38.1749" id="Fill-22"></path>
                        <path d="M123.9252,8.2954 C123.9252,12.6314 120.4892,16.1454 115.5242,16.1454 C110.5592,16.1454 107.1232,12.6314 107.1232,8.2954 C107.1232,3.9594 110.5592,0.4454 115.5242,0.4454 C120.4892,0.4454 123.9252,3.9594 123.9252,8.2954" id="Fill-23"></path>
                    </g>
                    <g id="windycity" transform="translate(237.000000, 53.000000)" fill="#8CC240">
                        <polygon id="Fill-1" points="59.9072 41.934 50.0642 5.515 36.1942 5.515 26.4412 41.934 17.6722 5.694 0.6702 5.694 18.1192 68.688 32.8842 68.688 42.9952 34.059 53.1072 68.688 67.8712 68.688 85.3202 5.694 68.6762 5.694"></polygon>
                        <polygon id="Fill-2" points="92.306 68.331 107.965 68.331 107.965 19.921 92.306 19.921"></polygon>
                        <path d="M146.801,18.9365 C140.627,18.9365 136.69,22.5165 134.005,26.3635 L134.005,19.9205 L118.257,19.9205 L118.257,68.3305 L134.005,68.3305 L134.005,39.7855 C134.005,35.3115 136.422,32.8965 139.822,32.8965 C143.133,32.8965 145.37,35.3115 145.37,39.7855 L145.37,68.3305 L161.118,68.3305 L161.118,34.9545 C161.118,25.1115 155.839,18.9365 146.801,18.9365 L146.801,18.9365 Z" id="Fill-3"></path>
                        <path d="M200.492,44.7077 C200.492,51.4187 197.181,55.8927 192.707,55.8927 C188.054,55.8927 184.833,51.4187 184.833,44.7077 L184.833,43.5437 C184.833,36.8327 188.054,32.3587 192.707,32.3587 C197.181,32.3587 200.492,36.8327 200.492,43.5437 L200.492,44.7077 Z M200.313,25.7377 C197.45,22.1587 193.781,18.9367 187.338,18.9367 C177.674,18.9367 169.263,26.9897 169.263,43.4547 L169.263,45.0657 C169.263,61.2617 177.674,69.3147 187.428,69.3147 C193.781,69.3147 197.36,66.0037 200.313,62.1567 L200.313,68.3307 L215.972,68.3307 L215.972,3.5467 L200.313,3.5467 L200.313,25.7377 Z" id="Fill-5"></path>
                        <path d="M247.0253,48.4657 L239.0613,19.9207 L222.7763,19.9207 L239.1513,67.6147 C238.3463,69.0467 237.1823,69.4937 235.6613,69.4937 C234.1403,69.4937 231.8133,68.7777 229.5773,67.5257 L225.5503,78.7107 C229.3983,80.8577 233.6923,82.1107 238.3463,82.1107 C247.2943,82.1107 251.5893,77.8157 255.1683,66.9887 L270.4693,19.9207 L254.5423,19.9207 L247.0253,48.4657 Z" id="Fill-7"></path>
                        <path d="M305.6381,54.4611 C298.3901,54.4611 292.8421,48.2861 292.8421,37.1011 L292.8421,36.7431 C292.8421,26.0961 298.3011,19.5631 305.6381,19.5631 C310.5591,19.5631 313.9601,22.2471 316.6451,25.4691 L327.0241,14.4631 C321.9241,8.4671 315.2131,4.6201 305.3701,4.6201 C288.9051,4.6201 276.2881,17.2361 276.2881,36.5651 L276.2881,37.6381 C276.2881,57.1451 288.7261,69.4041 304.7431,69.4041 C315.2131,69.4041 322.1921,64.9301 327.2931,58.6661 L317.0921,48.2861 C314.2281,51.5971 311.0071,54.4611 305.6381,54.4611" id="Fill-9"></path>
                        <polygon id="Fill-11" points="335.08 68.331 350.739 68.331 350.739 19.921 335.08 19.921"></polygon>
                        <path d="M379.1961,7.8408 L363.5371,7.8408 L363.5371,19.9208 L358.7051,19.9208 L358.7051,32.5388 L363.5371,32.5388 L363.5371,55.1768 C363.5371,65.4678 369.1741,69.2258 377.9431,69.2258 C382.1491,69.2258 385.8171,68.2418 388.5911,66.7198 L388.5911,54.3718 C386.8021,55.1768 385.0121,55.6238 383.2231,55.6238 C380.5381,55.6238 379.1961,54.4608 379.1961,51.5968 L379.1961,32.5388 L388.6811,32.5388 L388.6811,19.9208 L379.1961,19.9208 L379.1961,7.8408 Z" id="Fill-13"></path>
                        <path d="M417.9441,48.4657 L409.9801,19.9207 L393.6941,19.9207 L410.0691,67.6147 C409.2641,69.0467 408.1011,69.4937 406.5801,69.4937 C405.0581,69.4937 402.7321,68.7777 400.4951,67.5257 L396.4681,78.7107 C400.3161,80.8577 404.6111,82.1107 409.2641,82.1107 C418.2131,82.1107 422.5071,77.8157 426.0871,66.9887 L441.3871,19.9207 L425.4601,19.9207 L417.9441,48.4657 Z" id="Fill-14"></path>
                        <path d="M108.5361,8.2954 C108.5361,12.6314 105.1001,16.1454 100.1351,16.1454 C95.1701,16.1454 91.7341,12.6314 91.7341,8.2954 C91.7341,3.9594 95.1701,0.4454 100.1351,0.4454 C105.1001,0.4454 108.5361,3.9594 108.5361,8.2954" id="Fill-15"></path>
                        <path d="M351.3106,8.2954 C351.3106,12.6314 347.8746,16.1454 342.9096,16.1454 C337.9446,16.1454 334.5086,12.6314 334.5086,8.2954 C334.5086,3.9594 337.9446,0.4454 342.9096,0.4454 C347.8746,0.4454 351.3106,3.9594 351.3106,8.2954" id="Fill-16"></path>
                    </g>
                    <g id="mark" transform="translate(0.000000, 0.546000)">
                        <path d="M200.9048,61.8325 C200.4428,60.6065 199.9538,59.3955 199.4468,58.1955 C199.4328,58.1605 199.4178,58.1265 199.4038,58.0915 C195.2718,48.3365 189.6848,39.4325 182.7528,31.5815 C175.1908,23.0165 166.3338,16.0855 156.3848,10.9285 C156.2268,10.8405 156.0668,10.7555 155.9028,10.6755 L155.8998,10.6815 C154.8358,10.1375 153.7638,9.6075 152.6748,9.1055 C140.0638,3.2795 126.0488,0.3265 111.0198,0.3265 C84.2008,0.3265 61.2058,7.7685 44.5228,21.8485 C42.5058,23.5515 40.6078,25.3425 38.8268,27.2075 C38.7428,27.2915 38.6538,27.3685 38.5738,27.4575 L38.5828,27.4655 C27.2608,39.4415 20.8938,54.4925 20.8938,69.7815 C20.8938,74.0205 21.4318,77.7935 21.9348,80.3985 L17.4408,80.3985 C16.6298,79.4505 15.4278,78.8475 14.0838,78.8475 C11.6438,78.8475 9.6668,80.8255 9.6668,83.2655 C9.6668,85.7045 11.6438,87.6825 14.0838,87.6825 C15.4278,87.6825 16.6298,87.0795 17.4408,86.1315 L29.3858,86.1315 L28.2908,82.4485 C28.2748,82.3925 26.6268,76.7695 26.6268,69.7815 C26.6268,55.8535 32.5228,42.0945 43.0008,31.1365 C43.9838,30.3255 45.7638,30.5785 46.7038,31.3925 C47.2408,31.8585 47.6128,32.6945 47.6508,33.5225 C47.6688,33.8935 47.6308,34.5835 47.1858,35.0485 C40.2068,42.3305 35.5208,50.8355 33.4918,59.8225 C32.1628,60.5835 31.2648,62.0135 31.2648,63.6555 C31.2648,66.0945 33.2418,68.0725 35.6818,68.0725 C38.1208,68.0725 40.0988,66.0945 40.0988,63.6555 C40.0988,62.6085 39.7328,61.6485 39.1248,60.8915 C39.8048,57.9475 40.8118,55.0585 42.1288,52.2565 C42.5418,52.7375 43.0098,53.1695 43.5398,53.5285 C45.1278,54.6035 46.9638,55.1735 48.7978,55.1735 C49.1098,55.1735 49.4228,55.1575 49.7338,55.1235 C52.1738,54.8615 54.3468,53.5585 55.8498,51.4555 C57.8398,48.6745 60.2478,46.0825 63.0088,43.7525 C67.9968,39.5425 76.6098,34.0935 89.9138,31.1475 C90.6648,31.7385 91.6098,32.0935 92.6398,32.0935 C95.0788,32.0935 97.0568,30.1165 97.0568,27.6765 C97.0568,25.2375 95.0788,23.2595 92.6398,23.2595 C90.9808,23.2595 89.5368,24.1755 88.7818,25.5275 C74.2828,28.7195 64.8138,34.7275 59.3118,39.3715 C56.1868,42.0085 53.4538,44.9525 51.1878,48.1215 C49.4718,50.5205 47.0278,48.9675 46.7548,48.7825 C46.3958,48.5395 46.1618,48.1435 46.0588,47.6055 C45.8648,46.5935 46.1788,45.3555 46.8948,44.2845 C48.2318,42.4655 49.7058,40.7035 51.3248,39.0145 C52.7518,37.5255 53.4808,35.4805 53.3778,33.2575 C53.2668,30.8655 52.1748,28.5495 50.4578,27.0615 C49.9018,26.5795 49.2928,26.1885 48.6568,25.8685 C57.5388,18.4925 72.0748,10.0995 94.0808,7.1515 L94.0828,7.1635 C95.4798,6.9485 96.6728,7.1425 97.4448,7.7115 C97.9318,8.0705 98.2238,8.5555 98.3108,9.1515 C98.3988,9.7455 98.4578,10.8575 97.8678,11.6375 C97.4198,12.2285 96.5948,12.6045 95.4128,12.7565 C85.6688,14.0095 76.6858,16.4925 68.6538,20.1435 C68.1068,19.9005 67.5028,19.7625 66.8648,19.7625 C64.4258,19.7625 62.4478,21.7405 62.4478,24.1795 C62.4478,26.6195 64.4258,28.5965 66.8648,28.5965 C68.9118,28.5965 70.6288,27.2025 71.1298,25.3135 C78.6138,21.9255 87.0108,19.6165 96.1448,18.4415 C99.5878,17.9995 101.4668,16.3795 102.4368,15.0985 C103.8108,13.2835 104.3598,10.8745 103.9828,8.3145 C103.8768,7.6015 103.6728,6.9205 103.3898,6.2785 C105.8548,6.1385 108.3918,6.0585 111.0198,6.0585 C128.3048,6.0585 142.2798,10.0975 153.4058,15.8135 L153.3968,15.8315 C155.3858,16.7975 156.1188,19.0475 155.6428,20.0935 C155.2968,20.8545 154.6288,21.4815 153.9018,21.7285 C153.2418,21.9515 152.5598,21.8685 151.8188,21.4735 C149.8378,20.4195 147.8078,19.4545 145.7368,18.5705 L145.7368,18.5685 C145.7288,18.5655 145.7208,18.5635 145.7128,18.5605 C138.8698,15.6425 131.5428,13.6555 123.8268,12.6265 C123.0338,11.4455 121.6868,10.6685 120.1578,10.6685 C117.7188,10.6685 115.7408,12.6455 115.7408,15.0855 C115.7408,17.5245 117.7188,19.5025 120.1578,19.5025 C121.3178,19.5025 122.3708,19.0515 123.1588,18.3195 C127.5248,18.9065 131.7538,19.8215 135.8258,21.0585 C135.4078,21.6065 135.0418,22.2155 134.7518,22.8945 C132.8068,27.4505 134.9298,32.6225 139.5828,34.6695 C147.8948,38.3245 155.1898,43.6675 161.2668,50.5505 C164.2578,53.9385 166.9248,57.6785 169.2348,61.6935 C169.0498,62.1805 168.9438,62.7065 168.9438,63.2595 C168.9438,65.6985 170.9218,67.6765 173.3608,67.6765 C175.8008,67.6765 177.7778,65.6985 177.7778,63.2595 C177.7778,61.1275 176.2688,59.3495 174.2598,58.9345 C171.7458,54.5485 168.8338,50.4605 165.5638,46.7565 C158.9328,39.2465 150.9688,33.4145 141.8908,29.4215 C139.9448,28.5655 139.4138,26.5755 140.0238,25.1455 C140.8358,23.2435 142.7378,23.6065 143.6468,23.9105 C145.5128,24.7115 147.3408,25.5835 149.1248,26.5335 C150.4268,27.2265 151.8138,27.5775 153.1878,27.5775 C154.0538,27.5775 154.9148,27.4385 155.7438,27.1565 C157.9858,26.3955 159.8508,24.6865 160.8608,22.4685 C161.1448,21.8445 161.3298,21.1875 161.4268,20.5145 C168.4998,25.2035 174.1178,30.4615 178.4558,35.3745 C185.0298,42.8205 190.3798,51.4925 194.2458,60.6935 C194.7938,62.6005 193.4088,63.5145 192.7358,63.8325 C191.8938,64.2315 190.8948,64.2975 190.1268,64.0035 C189.5768,63.7935 189.1978,63.4245 188.9668,62.8755 C185.3178,54.2065 180.1978,46.0085 174.1578,39.1685 C173.6508,38.5935 173.1298,38.0255 172.6048,37.4625 C172.6168,37.3275 172.6248,37.1905 172.6248,37.0525 C172.6248,34.6125 170.6478,32.6355 168.2078,32.6355 C165.7688,32.6355 163.7908,34.6125 163.7908,37.0525 C163.7908,39.4915 165.7688,41.4695 168.2078,41.4695 C168.3028,41.4695 168.3958,41.4605 168.4898,41.4555 C168.9528,41.9525 169.4128,42.4545 169.8608,42.9625 C175.4928,49.3425 180.2728,56.9965 183.6828,65.0995 C184.5168,67.0805 186.0788,68.5935 188.0808,69.3585 C189.0668,69.7355 190.1198,69.9225 191.1828,69.9225 C192.5398,69.9225 193.9148,69.6175 195.1908,69.0135 C195.8338,68.7085 196.4178,68.3445 196.9428,67.9335 C199.7568,76.5555 201.2728,85.4695 201.2728,94.1455 C201.2728,118.6005 187.4568,122.5535 186.8928,122.7035 L184.7128,123.2405 L184.7128,125.4865 C184.7128,141.5135 174.8768,146.9225 174.4758,147.1365 L172.9178,147.9355 L172.9178,158.5575 C171.9698,159.3675 171.3668,160.5695 171.3668,161.9145 C171.3668,164.3535 173.3448,166.3315 175.7838,166.3315 C178.2238,166.3315 180.2008,164.3535 180.2008,161.9145 C180.2008,160.5695 179.5978,159.3675 178.6498,158.5575 L178.6498,151.2665 C179.9748,150.3355 181.9588,148.6975 183.9418,146.1545 C188.7048,140.0455 190.1338,132.9485 190.3968,127.4975 C195.3288,125.3125 207.0048,117.6555 207.0048,94.1455 C207.0048,83.5845 204.8958,72.4105 200.9048,61.8325" id="Fill-24" fill="#42A5D0"></path>
                        <path d="M155.3613,158.5572 L155.3613,148.3492 L152.4953,148.3492 C135.9093,148.3492 131.7863,133.9142 131.6213,133.3102 L131.0573,131.1762 L96.7143,131.1762 C90.4173,131.1762 85.2943,126.0532 85.2943,119.7562 L85.2943,116.8902 L82.4283,116.8902 C54.7183,116.8902 42.0893,104.6532 41.9733,104.5382 L41.1323,103.6872 L17.4403,103.6872 C16.6303,102.7392 15.4283,102.1362 14.0833,102.1362 C11.6443,102.1362 9.6663,104.1142 9.6663,106.5542 C9.6663,108.9932 11.6443,110.9712 14.0833,110.9712 C15.4283,110.9712 16.6303,110.3682 17.4403,109.4202 L38.8273,109.4202 C42.2733,112.3832 55.2483,121.9412 79.7963,122.5882 C81.1503,130.7032 88.2213,136.9092 96.7143,136.9092 L126.8223,136.9092 C127.5763,138.7742 128.9683,141.6152 131.2913,144.4472 C134.5733,148.4462 140.3383,153.1442 149.6293,153.9592 L149.6293,158.5572 C148.6813,159.3672 148.0783,160.5692 148.0783,161.9142 C148.0783,164.3542 150.0553,166.3312 152.4953,166.3312 C154.9343,166.3312 156.9123,164.3542 156.9123,161.9142 C156.9123,160.5692 156.3093,159.3672 155.3613,158.5572" id="Fill-25" fill="#42A5D0"></path>
                        <path d="M167.0055,167.3538 L167.0055,131.5508 L186.7825,108.3758 L186.7825,83.3908 L168.6405,83.3908 L168.6405,95.1028 L162.7285,95.1028 L162.7285,77.5328 L151.0845,77.5328 L151.0845,68.2578 L143.7335,60.9068 L143.7335,53.4618 C144.3185,52.9708 144.6915,52.2348 144.6915,51.4108 C144.6915,49.9308 143.4925,48.7318 142.0135,48.7318 C140.5345,48.7318 139.3355,49.9308 139.3355,51.4108 C139.3355,52.2348 139.7085,52.9708 140.2945,53.4618 L140.2945,60.9068 L132.9425,68.2578 L132.9425,112.2978 L127.0305,112.2978 L127.0305,81.8648 L123.2065,81.8648 L123.2065,65.8138 L119.3815,65.8138 L119.3815,44.1618 L116.3235,44.1618 L116.3235,36.8668 C116.9085,36.3758 117.2815,35.6388 117.2815,34.8148 C117.2815,33.3358 116.0825,32.1368 114.6035,32.1368 C113.1245,32.1368 111.9255,33.3358 111.9255,34.8148 C111.9255,35.6388 112.2975,36.3758 112.8835,36.8668 L112.8835,44.1618 L107.7385,44.1618 L107.7385,36.8668 C108.3235,36.3758 108.6965,35.6388 108.6965,34.8148 C108.6965,33.3358 107.4975,32.1368 106.0185,32.1368 C104.5395,32.1368 103.3405,33.3358 103.3405,34.8148 C103.3405,35.6388 103.7135,36.3758 104.2985,36.8668 L104.2985,44.1618 L101.2405,44.1618 L101.2405,65.8138 L97.4155,65.8138 L97.4155,81.8648 L93.5905,81.8648 L93.5905,98.5248 L87.6785,98.5248 L87.6785,61.4808 L80.3275,61.4808 L80.3275,54.1858 C80.9135,53.6948 81.2865,52.9578 81.2865,52.1338 C81.2865,50.6548 80.0875,49.4558 78.6075,49.4558 C77.1285,49.4558 75.9295,50.6548 75.9295,52.1338 C75.9295,52.9578 76.3025,53.6948 76.8885,54.1858 L76.8885,61.4808 L69.5375,61.4808 L69.5375,88.9968 L63.6255,88.9968 L63.6255,68.3578 L45.4835,68.3578 L45.4835,92.0428 L8.6435,92.0428 C7.8335,91.0958 6.6315,90.4928 5.2865,90.4928 C2.8475,90.4928 0.8695,92.4698 0.8695,94.9098 C0.8695,97.3488 2.8475,99.3268 5.2865,99.3268 C6.6315,99.3268 7.8335,98.7238 8.6435,97.7758 L51.2155,97.7758 L51.2155,74.0908 L57.8925,74.0908 L57.8925,94.7298 L75.2695,94.7298 L75.2695,67.2128 L81.9465,67.2128 L81.9465,104.2568 L99.3235,104.2568 L99.3235,87.5968 L103.1475,87.5968 L103.1475,71.5468 L106.9725,71.5468 L106.9725,49.8938 L113.6495,49.8938 L113.6495,71.5468 L117.4735,71.5468 L117.4735,87.5968 L121.2985,87.5968 L121.2985,118.0308 L138.6755,118.0308 L138.6755,70.6318 L142.0135,67.2938 L145.3525,70.6318 L145.3525,83.2648 L156.9965,83.2648 L156.9965,100.8358 L174.3735,100.8358 L174.3735,89.1228 L181.0505,89.1228 L181.0505,106.2618 L161.2735,129.4378 L161.2735,167.3538 C160.3255,168.1638 159.7225,169.3668 159.7225,170.7108 C159.7225,173.1508 161.6995,175.1278 164.1395,175.1278 C166.5785,175.1278 168.5565,173.1508 168.5565,170.7108 C168.5565,169.3658 167.9535,168.1638 167.0055,167.3538" id="Fill-26" fill="#8CC240"></path>
                    </g>
                </g>
            </g>
        </g>
    </g>
</svg>