<?xml version="1.0" encoding="UTF-8" standalone="no"?>
<svg width="369px" height="80px" viewBox="0 0 369 80" version="1.1" xmlns="http://www.w3.org/2000/svg" xmlns:xlink="http://www.w3.org/1999/xlink">
    <!-- Generator: Sketch 3.8.3 (29802) - http://www.bohemiancoding.com/sketch -->
    <title>WisdomGroup-LightBG</title>
    <desc>Created with Sketch.</desc>
    <defs>
        <polygon id="path-1" points="68.931326 0.106258002 0 0.106258002 0 63.9443931 68.931326 63.9443931 68.931326 0.106258002"></polygon>
    </defs>
    <g id="Page-1" stroke="none" stroke-width="1" fill="none" fill-rule="evenodd">
        <g id="LightBG" transform="translate(-20.000000, -17.000000)">
            <g id="WisdomGroup-LightBG" transform="translate(20.000000, 17.000000)">
                <g id="group">
                    <path d="M278.791063,37.7288636 C279.684132,37.7288636 280.353267,38.0058314 280.801135,38.5650932 C281.249002,39.124355 281.472936,39.8327532 281.472936,40.6929511 L281.472936,46.7223258 C281.472936,47.8381862 281.336976,48.6664263 281.065056,49.2097092 C280.793137,49.7503289 280.193314,50.2137172 279.270921,50.597211 C278.439167,50.9460839 277.490115,51.2177253 276.418432,51.4094722 C275.349415,51.598556 274.256405,51.6970926 273.139403,51.6970926 C269.11926,51.6970926 266.085491,50.5173165 264.040763,48.1551012 C262.001367,45.7982123 260.97767,42.0165373 260.97767,36.820729 C260.97767,31.718131 262.001367,28.0349927 264.040763,25.7686509 C266.085491,23.5049722 269.11926,22.375796 273.139403,22.375796 C274.864226,22.375796 276.418432,22.6607532 277.81002,23.2359939 C279.196276,23.8085715 280.321277,24.4131068 281.185021,25.0522632 L280.177319,27.1561527 C279.540175,26.5516174 278.591122,25.9550715 277.330162,25.3638519 C276.069202,24.7752954 274.672282,24.4770225 273.139403,24.4770225 C269.916357,24.4770225 267.490409,25.4437464 265.861557,27.371868 C264.235372,29.3026527 263.419614,32.4531608 263.419614,36.820729 C263.419614,41.2841707 264.235372,44.5198996 265.861557,46.5305789 C267.490409,48.538595 269.916357,49.5426031 273.139403,49.5426031 C274.067128,49.5426031 274.98419,49.4627086 275.893254,49.3055826 C276.804984,49.1457935 277.610079,48.9061099 278.311205,48.5865318 C278.59912,48.4587005 278.791063,48.3148903 278.887035,48.1551012 C278.98034,47.9953122 279.030992,47.7423128 279.030992,47.3907768 L279.030992,40.5997408 C279.030992,40.1203736 278.791063,39.88069 278.311205,39.88069 L272.278324,39.88069 L272.278324,37.7288636 L278.791063,37.7288636 L278.791063,37.7288636 Z M298.947762,30.8392911 C298.057359,30.4238395 297.097643,30.2187768 296.076612,30.2187768 C294.162512,30.2187768 292.645628,30.8073333 291.525959,31.9897725 C290.408957,33.1695485 289.851788,34.8739654 289.851788,37.1083494 L289.851788,51.4094722 L287.409845,51.4094722 L287.409845,36.7727923 C287.409845,34.1575777 288.150959,32.0590144 289.635852,30.4824288 C291.120746,28.90318 293.266777,28.1148872 296.076612,28.1148872 C297.48153,28.1148872 298.739824,28.3545708 299.859492,28.8312749 L298.947762,30.8392911 L298.947762,30.8392911 Z M311.805289,28.1148872 L311.805289,30.2187768 C309.456651,30.2267663 307.731828,31.0523432 306.633487,32.7061602 C305.532479,34.3653035 304.983309,36.7568134 304.983309,39.88069 C304.983309,43.0072297 305.532479,45.3987396 306.633487,47.0552197 C307.731828,48.7090367 309.456651,49.53994 311.805289,49.5426031 L311.805289,51.6970926 C308.720869,51.6917663 306.406887,50.6691161 304.863344,48.6344685 C303.314469,46.5944945 302.541365,43.6756806 302.541365,39.88069 C302.541365,36.0856993 303.314469,33.177538 304.863344,31.1508798 C306.406887,29.1295479 308.720869,28.1202135 311.805289,28.1148872 L311.805289,28.1148872 L311.805289,28.1148872 Z M335.867499,51.6970926 C334.590543,51.6970926 333.417557,51.4893667 332.345875,51.0739151 C331.276858,50.6584635 330.359796,50.0699071 329.594689,49.3055826 C328.829582,48.538595 328.237757,47.622471 327.824546,46.5518841 C327.40867,45.4866236 327.200731,44.2988581 327.200731,42.9912507 L327.200731,28.3545708 L329.642675,28.3545708 L329.642675,42.6556937 C329.642675,44.8874145 330.202509,46.5944945 331.319512,47.7742706 C332.436514,48.9540467 333.950733,49.5426031 335.867499,49.5426031 C337.752274,49.5426031 339.250497,48.9540467 340.3675,47.7742706 C341.487168,46.5944945 342.044337,44.8874145 342.044337,42.6556937 L342.044337,28.3545708 L344.48628,28.3545708 L344.48628,42.9912507 C344.48628,45.6038022 343.750498,47.710355 342.2816,49.3055826 C340.815367,50.8981471 338.677333,51.6970926 335.867499,51.6970926 L335.867499,51.6970926 L335.867499,51.6970926 Z M311.805289,51.6970926 L311.805289,49.5426031 L311.829282,49.5426031 C314.191249,49.5426031 315.916072,48.7116999 317.001084,47.0552197 C318.086096,45.3987396 318.627269,43.0072297 318.627269,39.88069 C318.627269,36.7568134 318.086096,34.3653035 317.001084,32.7061602 C315.916072,31.0470169 314.191249,30.2187768 311.829282,30.2187768 L311.805289,30.2187768 L311.805289,28.1148872 L311.829282,28.1148872 C314.927031,28.1148872 317.241013,29.1268847 318.773893,31.1508798 C320.304106,33.177538 321.071879,36.0856993 321.071879,39.88069 C321.071879,43.6756806 320.304106,46.5944945 318.773893,48.6344685 C317.241013,50.6744424 314.927031,51.6970926 311.829282,51.6970926 L311.805289,51.6970926 L311.805289,51.6970926 Z M359.809744,30.2187768 C358.308855,30.2187768 357.135869,30.4984077 356.28812,31.0550063 C355.443037,31.6142681 354.803226,32.3466347 354.37402,33.2547694 C353.942148,34.1655671 353.678226,35.201533 353.58492,36.3653301 C353.486283,37.5291273 353.438297,38.7009139 353.438297,39.88069 C353.438297,41.0924238 353.512941,42.2721999 353.654233,43.4226813 C353.79819,44.5678364 354.1021,45.5984759 354.565963,46.5066105 C355.02716,47.4147452 355.682966,48.1497749 356.528049,48.7063736 C357.375798,49.2656354 358.498132,49.5426031 359.903049,49.5426031 L359.927042,49.5426031 L359.927042,51.6944294 C358.588772,51.6651347 357.397125,51.4600721 356.360098,51.0739151 C355.243096,50.6584635 354.27005,49.7822867 353.438297,48.4427216 L353.438297,59.2045163 L350.996353,59.2045163 L350.996353,39.88069 C350.996353,36.1176571 351.700145,33.2148221 353.105062,31.1775113 C354.507314,29.132211 356.743985,28.1148872 359.809744,28.1148872 L359.927042,28.1148872 L359.927042,30.22144 L359.809744,30.2187768 L359.809744,30.2187768 Z M359.927042,49.5426031 C361.321296,49.5426031 362.446297,49.2629722 363.304709,48.7063736 C364.165787,48.1497749 364.826925,47.4147452 365.290788,46.5066105 C365.75465,45.5984759 366.055895,44.5678364 366.202518,43.4226813 C366.343809,42.2721999 366.415788,41.0924238 366.415788,39.88069 C366.415788,38.7009139 366.335812,37.5291273 366.175859,36.3653301 C366.018572,35.201533 365.698667,34.1655671 365.218809,33.2547694 C364.741617,32.3466347 364.069816,31.6142681 363.208737,31.0550063 C362.371652,30.5117234 361.278642,30.2347557 359.927042,30.22144 L359.927042,28.1148872 C362.870171,28.1415187 365.088181,29.1535163 366.583738,31.1508798 C368.097957,33.177538 368.857732,36.0856993 368.857732,39.88069 C368.857732,43.6756806 368.116618,46.5944945 366.631724,48.6344685 C365.14683,50.6744424 363.016794,51.6970926 360.23895,51.6970926 L359.927042,51.6944294 L359.927042,49.5426031 L359.927042,49.5426031 Z" fill="#7E929E"></path>
                    <path d="M133.89636,41.6026836 C133.89636,44.793139 132.963302,47.2725329 131.097188,49.0435285 C129.228408,50.811861 126.538538,51.6960273 123.027577,51.6960273 C122.198489,51.6960273 121.385397,51.6241222 120.585634,51.480312 C119.788536,51.339165 119.036759,51.1154603 118.335633,50.811861 C117.634507,50.5082618 116.994697,50.1114522 116.418867,49.6161061 C115.845703,49.1207599 115.397836,48.524214 115.080597,47.8211421 C114.408796,49.2565806 113.331781,50.2605887 111.849553,50.8331663 C110.361994,51.4084069 108.711815,51.6960273 106.891021,51.6960273 C105.264836,51.6960273 103.78794,51.4669963 102.462999,51.0036079 C101.138058,50.5402196 100.013057,49.8770949 99.0853321,49.0195602 C98.1602727,48.154036 97.4431516,47.1020912 96.9313032,45.8610627 C96.4194547,44.617371 96.1661963,43.1979113 96.1661963,41.6026836 L96.1661963,22.2788573 L101.47929,22.2788573 L101.47929,41.3177264 C101.47929,43.3577004 101.95115,44.8703703 102.892205,45.8610627 C103.83326,46.8490918 105.168864,47.3417748 106.891021,47.3417748 C108.551863,47.3417748 109.884802,46.8490918 110.889837,45.8610627 C111.894873,44.8703703 112.398724,43.3577004 112.398724,41.3177264 L112.398724,22.2788573 L117.714484,22.2788573 L117.714484,41.3177264 C117.714484,43.3577004 118.183678,44.8703703 119.127399,45.8610627 C120.068453,46.8490918 121.366736,47.3417748 123.027577,47.3417748 C124.7524,47.3417748 126.109332,46.8490918 127.098372,45.8610627 C128.087413,44.8703703 128.583266,43.3577004 128.583266,41.3177264 L128.583266,22.2788573 L133.89636,22.2788573 L133.89636,41.6026836 L133.89636,41.6026836 Z M145.820829,51.7919007 C143.968044,51.4084069 142.653767,50.652072 141.869999,49.5202326 C141.088897,48.3883933 140.697013,46.8650707 140.697013,44.9502649 L140.697013,28.3535056 L145.868815,28.3535056 L145.868815,45.3816954 C145.868815,45.9862308 145.996777,46.4975558 146.252701,46.9130074 C146.50596,47.3257959 146.953827,47.6959739 147.590972,48.012889 L145.820829,51.7919007 L145.820829,51.7919007 Z M143.3309,26.4386998 C142.501812,26.4386998 141.792688,26.1351005 141.198198,25.5305651 C140.609039,24.9260298 140.313126,24.2389367 140.313126,23.4746123 C140.313126,22.6144144 140.609039,21.8873741 141.198198,21.2988176 C141.792688,20.707598 142.485817,20.4146514 143.282914,20.4146514 C144.114668,20.4146514 144.823791,20.707598 145.41295,21.2988176 C146.004775,21.8873741 146.298021,22.5957723 146.298021,23.4266756 C146.298021,24.225621 146.004775,24.9260298 145.41295,25.5305651 C144.823791,26.1351005 144.127997,26.4386998 143.3309,26.4386998 L143.3309,26.4386998 L143.3309,26.4386998 Z M162.434577,37.8236718 C163.490265,37.9195453 164.471308,38.0873238 165.380372,38.3270074 C166.289436,38.5640279 167.070538,38.9315428 167.726344,39.426889 C168.38215,39.9222351 168.89933,40.5667177 169.283216,41.363 C169.664437,42.1619454 169.859046,43.1659535 169.859046,44.3776873 C169.859046,46.641366 168.971309,48.4203511 167.201166,49.7093164 C165.428358,51.0036079 163.045063,51.6454274 160.040619,51.6454274 C156.529659,51.6454274 153.41858,50.5961458 150.704717,48.4922562 L152.666802,44.4256241 C153.911767,45.4775689 155.135405,46.2525459 156.332384,46.7452289 C157.526697,47.2405751 158.731674,47.4882481 159.944648,47.4882481 C163.138369,47.4882481 164.73523,46.4496191 164.73523,44.3776873 C164.73523,42.9102909 163.85549,42.1140087 162.101343,41.9861774 L158.702349,41.6985571 C153.623852,41.2831055 151.085937,39.0993213 151.085937,35.1445416 C151.085937,32.9767364 151.893698,31.2616669 153.506554,30.0046594 C155.116744,28.7423257 157.297432,28.113822 160.040619,28.113822 C161.384222,28.113822 162.76248,28.3295372 164.183393,28.7609677 C165.604306,29.1897351 166.937244,29.7729653 168.179543,30.5053319 L166.505372,34.2364069 C165.324388,33.4694194 164.183393,32.9447785 163.082386,32.6598213 C161.981378,32.372201 160.965679,32.2283908 160.040619,32.2283908 C157.489375,32.2283908 156.209754,33.2004411 156.209754,35.1445416 C156.209754,36.5160645 157.169469,37.299031 159.083569,37.4907779 L162.434577,37.8236718 L162.434577,37.8236718 Z M183.313729,28.1218114 L183.313729,32.2763275 C182.354013,32.2763275 181.588907,32.4920428 181.013077,32.9208102 C180.437248,33.3522407 179.992046,33.9248182 179.672141,34.6438691 C179.354901,35.3602568 179.146963,36.172518 179.048325,37.0833158 C178.95502,37.9914504 178.907034,38.9262165 178.907034,39.8822878 C178.907034,40.8383592 178.963017,41.7704622 179.074984,42.6785968 C179.186951,43.5893945 179.402887,44.4016557 179.720127,45.1180434 C180.040032,45.8344311 180.495897,46.4096718 181.085056,46.8411024 C181.655554,47.2592171 182.399333,47.4722692 183.313729,47.4882481 L183.313729,51.6454274 C180.167994,51.6267854 177.798029,50.6147878 176.201168,48.6094349 C174.588313,46.5854398 173.785883,43.6772785 173.785883,39.8822878 C173.785883,36.0872971 174.574983,33.1764727 176.153183,31.1524777 C177.734048,29.1258195 180.024037,28.113822 183.025815,28.113822 C183.11912,28.113822 183.217758,28.1164851 183.313729,28.1218114 L183.313729,28.1218114 L183.313729,28.1218114 Z M183.313729,51.6454274 L183.313729,47.4882481 L183.409701,47.4882481 C184.430732,47.4882481 185.227829,47.2725329 185.800993,46.8411024 C186.376823,46.4096718 186.808695,45.8344311 187.096609,45.1180434 C187.381858,44.4016557 187.557806,43.5893945 187.621787,42.6785968 C187.685768,41.7704622 187.717759,40.8383592 187.717759,39.8822878 C187.717759,38.9262165 187.669773,37.9914504 187.573801,37.0833158 C187.480496,36.172518 187.269891,35.3602568 186.949986,34.6438691 C186.632747,33.9248182 186.184879,33.3522407 185.60905,32.9208102 C185.035886,32.4920428 184.270779,32.2763275 183.313729,32.2763275 L183.313729,28.1218114 C184.073504,28.1564324 184.814618,28.3188846 185.539737,28.6171576 C186.35283,28.9500515 187.077948,29.4054504 187.717759,29.9780279 L187.717759,20.3640515 L192.889561,20.3640515 L192.889561,39.8822878 C192.889561,43.6772785 192.129786,46.5854398 190.615568,48.6094349 C189.098683,50.6360931 186.696728,51.6454274 183.409701,51.6454274 L183.313729,51.6454274 L183.313729,51.6454274 Z M207.445252,28.113822 L207.445252,32.2763275 C205.843059,32.2896433 204.65941,32.9421154 203.902301,34.2364069 C203.137194,35.5440143 202.753308,37.4268623 202.753308,39.8822878 C202.753308,42.3377134 203.137194,44.2178983 203.902301,45.5255056 C204.65941,46.817134 205.843059,47.4749324 207.445252,47.4882481 L207.445252,51.6454274 C204.182218,51.637438 201.729611,50.6254404 200.095428,48.6094349 C198.450581,46.5854398 197.626825,43.6772785 197.626825,39.8822878 C197.626825,36.0872971 198.450581,33.1764727 200.095428,31.1524777 C201.729611,29.1364721 204.182218,28.1244746 207.445252,28.113822 L207.445252,28.113822 L207.445252,28.113822 Z M207.445252,51.6454274 L207.445252,47.4882481 L207.493238,47.4882481 C209.122089,47.4882481 210.303072,46.8304498 211.036189,45.5255056 C211.769305,44.2178983 212.137196,42.3377134 212.137196,39.8822878 C212.137196,37.4268623 211.769305,35.5440143 211.036189,34.2364069 C210.303072,32.9287996 209.122089,32.2763275 207.493238,32.2763275 L207.445252,32.2763275 L207.445252,28.113822 L207.493238,28.113822 C210.780264,28.113822 213.238203,29.1258195 214.867055,31.1524777 C216.49324,33.1764727 217.308998,36.0872971 217.308998,39.8822878 C217.308998,43.6772785 216.49324,46.5854398 214.867055,48.6094349 C213.238203,50.6360931 210.780264,51.6454274 207.493238,51.6454274 L207.445252,51.6454274 L207.445252,51.6454274 Z M244.794195,28.113822 C246.167121,28.113822 247.420084,28.3295372 248.553082,28.7609677 C249.68608,29.1897351 250.659125,29.7969336 251.474883,30.577237 C252.287976,31.3575403 252.917123,32.2976328 253.36499,33.4001774 C253.812858,34.5000589 254.036792,35.7197823 254.036792,37.0593474 L254.036792,51.4084069 L248.912975,51.4084069 L248.912975,37.3922413 C248.912975,35.7357612 248.537086,34.4681011 247.787975,33.5919243 C247.036197,32.7130844 246.039159,32.2763275 244.794195,32.2763275 C243.54923,32.2763275 242.549526,32.7130844 241.800414,33.5919243 C241.051303,34.4681011 240.675414,35.7357612 240.675414,37.3922413 L240.675414,51.4084069 L235.503612,51.4084069 L235.503612,37.3922413 C235.503612,35.7357612 235.133055,34.4681011 234.381277,33.5919243 C233.6295,32.7130844 232.616466,32.2763275 231.339511,32.2763275 C230.094546,32.2763275 229.097508,32.7130844 228.348397,33.5919243 C227.596619,34.4681011 227.220731,35.7357612 227.220731,37.3922413 L227.220731,51.4084069 L222.096914,51.4084069 L222.096914,37.0593474 C222.096914,34.3802171 222.896677,32.2204014 224.490872,30.577237 C226.087733,28.9367357 228.37239,28.113822 231.339511,28.113822 C232.709772,28.113822 234.021384,28.4626948 235.266349,29.1657667 C236.511313,29.8688387 237.420378,30.9527413 237.993541,32.4201377 C238.53738,30.9207835 239.430449,29.8288914 240.675414,29.1444615 C241.920379,28.4573685 243.293306,28.113822 244.794195,28.113822 L244.794195,28.113822 L244.794195,28.113822 Z" id="wisdom" fill="#00457E"></path>
                    <g id="mark">
                        <path d="M78.4922288,31.1439556 C79.0653924,33.7218861 79.3879636,36.3930269 79.4332835,39.1307465 C73.9335784,37.6979711 68.135295,36.9309835 62.1477343,36.9309835 C39.62107,36.9309835 19.8056032,47.7673464 8.37432075,64.1483904 L8.34233022,64.1031169 C15.2282916,51.8632732 26.3636616,41.5568774 40.708748,35.5115238 C53.2117132,30.2464736 66.3358277,28.9841398 78.4922288,31.1439556" id="Fill-1" fill="#00457E"></path>
                        <path d="M8.46629353,64.2682323 C19.5776706,55.6476113 33.8614419,50.4571293 49.4461613,50.4571293 C58.9393508,50.4571293 67.9473506,52.3825877 76.0542839,55.8340319 C69.8827776,69.7516609 55.9375728,79.4641739 39.7210405,79.4641739 C27.0341298,79.4641739 15.7388071,73.5200201 8.46629353,64.2682323" id="Fill-3" fill="#7E929E"></path>
                        <mask id="mask-2" fill="white">
                            <use xlink:href="#path-1"></use>
                        </mask>
                        <g id="Clip-6"></g>
                        <path d="M68.931326,12.902434 C61.6641441,13.4031065 54.3063224,15.1048602 47.1511074,18.1195475 C26.4399057,26.8440314 12.4120587,44.4607777 8.21863351,63.9443931 L8.15998421,63.8698248 C9.72218838,49.9681747 15.9123558,36.1916927 26.6931641,25.05972 C30.500037,21.1262454 34.6588058,17.7546958 39.0521718,14.9477342 L18.842155,14.9477342 C8.54653644,29.6483298 4.86495971,47.2863813 7.8774012,63.4996468 C2.9295327,56.8843788 -0.000266587742,48.6765463 -0.000266587742,39.7842839 C-0.000266587742,17.8772007 17.7891335,0.105991687 39.721307,0.105991687 C51.2725539,0.105991687 61.6721418,5.03548486 68.931326,12.902434" id="Fill-5" fill="#00457E" mask="url(#mask-2)"></path>
                        <g id="Group-7" mask="url(#mask-2)">
                            <g transform="translate(0.000000, -0.429035)"></g>
                        </g>
                    </g>
                </g>
            </g>
        </g>
    </g>
</svg>