<?xml version="1.0" encoding="UTF-8" standalone="no"?>
<svg width="143px" height="19px" viewBox="0 0 143 19" version="1.1" xmlns="http://www.w3.org/2000/svg" xmlns:xlink="http://www.w3.org/1999/xlink">
    <!-- Generator: Sketch 3.8.3 (29802) - http://www.bohemiancoding.com/sketch -->
    <title>braintree</title>
    <desc>Created with Sketch.</desc>
    <defs>
        <polygon id="path-1" points="46.7225192 16.9827119 0.0180769231 16.9827119 0.0180769231 0.265084746 46.7225192 0.265084746 46.7225192 16.9827119"></polygon>
        <polygon id="path-3" points="0.1986 16.9827119 77.7294 16.9827119 77.7294 8.62375424 77.7294 0.26479661 0.1986 0.26479661 0.1986 16.9827119"></polygon>
    </defs>
    <g id="Page-1" stroke="none" stroke-width="1" fill="none" fill-rule="evenodd">
        <g id="braintree">
            <g id="Group-5" transform="translate(0.000000, 2.000000)">
                <mask id="mask-2" fill="white">
                    <use xlink:href="#path-1"></use>
                </mask>
                <g id="Clip-2"></g>
                <path d="M4.68373077,14.2105593 L8.04212179,14.2105593 C10.6343526,14.2105593 11.9307692,13.3934068 11.9307692,11.8158644 C11.9307692,10.2668475 10.5460769,9.42145763 7.83574359,9.42145763 L4.68373077,9.42145763 L4.68373077,14.2105593 L4.68373077,14.2105593 Z M4.68373077,2.65977966 L4.68373077,7.11118644 L7.62966667,7.11118644 C9.83896795,7.11118644 10.9880577,6.32227119 10.9880577,4.88562712 C10.9880577,3.42045763 9.80974359,2.65977966 7.60014103,2.65977966 L4.68373077,2.65977966 L4.68373077,2.65977966 Z M0,16.6058305 L0,14.2105593 L1.97369872,14.2105593 L1.97369872,2.65977966 L0,2.65977966 L0,0.265084746 L7.89479487,0.265084746 C11.5183141,0.265084746 13.7276154,1.87086441 13.7276154,4.66030508 C13.7276154,6.49140678 12.6083526,7.61830508 11.1941346,8.15366102 C13.2268846,8.68901695 14.6703269,10.0694746 14.6703269,11.9570508 C14.6703269,14.9432881 12.2546474,16.6058305 8.30725,16.6058305 L0,16.6058305 L0,16.6058305 Z" id="Fill-1" fill="#373638" mask="url(#mask-2)"></path>
                <path d="M28.9878526,8.09718644 C28.6931987,7.13942373 27.9571667,6.57583051 26.9846282,6.57583051 C24.7162756,6.57583051 22.5660256,8.18161017 22.5660256,11.111661 L22.5660256,14.2108475 L26.9258782,14.2108475 L26.9258782,16.6055424 L17.2047115,16.6055424 L17.2047115,14.2108475 L19.9737949,14.2108475 L19.9737949,6.99852542 L17.7937179,6.99852542 L17.7937179,4.60354237 L22.5361987,4.60354237 L22.5361987,6.63201695 C23.3318846,5.22332203 24.9518782,4.20937288 27.1027308,4.20937288 C29.5184103,4.20937288 31.0206026,5.53364407 31.4622821,7.4209322 L28.9878526,8.09718644" id="Fill-3" fill="#373638" mask="url(#mask-2)"></path>
                <path d="M42.2448654,11.7593898 C41.4199551,11.4778814 40.1825897,11.2525593 39.0338013,11.2525593 C37.3842821,11.2525593 35.7932115,11.7593898 35.7932115,13.1966102 C35.7932115,14.2670339 36.7949744,14.7744407 38.1793654,14.7744407 C40.0943141,14.7744407 42.2448654,13.7878644 42.2448654,12.0979492 L42.2448654,11.7593898 L42.2448654,11.7593898 Z M42.2448654,9.61854237 L42.2448654,8.94257627 C42.2448654,7.25179661 40.8309487,6.54759322 39.2989295,6.54759322 C37.8554872,6.54759322 36.6181218,7.11118644 35.6166603,7.98423729 L33.9080897,6.20961017 C35.0864038,5.16713559 36.7654487,4.20937288 39.2989295,4.20937288 C42.4509423,4.20937288 44.8961474,5.81515254 44.8961474,8.85786441 L44.8961474,14.2108475 L46.7225192,14.2108475 L46.7225192,16.6055424 L42.2448654,16.6055424 L42.2448654,15.3377458 C41.5672821,16.3802203 39.7409103,17 37.9437628,17 C35.3515321,17 33.1124038,15.7322034 33.1124038,13.2245593 C33.1124038,10.2665593 36.1469167,9.13966102 38.9163013,9.13966102 C40.2711667,9.13966102 41.3907308,9.39322034 42.2448654,9.61854237 L42.2448654,9.61854237 Z" id="Fill-4" fill="#373638" mask="url(#mask-2)"></path>
            </g>
            <path d="M54.6604352,3.85323165 L57.4231894,3.85323165 L57.4231894,0 L54.6604352,0 L54.6604352,3.85323165 Z M62,16.4799847 L62,19 L50,19 L50,16.4799847 L54.9672494,16.4799847 L54.9672494,8.89204972 L51.1721727,8.89204972 L51.1721727,6.37264068 L57.4231894,6.37264068 L57.4231894,16.4799847 L62,16.4799847 L62,16.4799847 Z" id="Fill-6" fill="#373638"></path>
            <g id="Group-13" transform="translate(65.000000, 2.000000)">
                <mask id="mask-4" fill="white">
                    <use xlink:href="#path-3"></use>
                </mask>
                <g id="Clip-8"></g>
                <path d="M0.1986,14.2105593 L2.1051,14.2105593 L2.1051,6.99852542 L0.3159,6.99852542 L0.3159,4.60354237 L4.6572,4.60354237 L4.6572,6.15313559 C5.4198,4.97005085 7.0041,4.20937288 8.94,4.20937288 C11.7267,4.20937288 13.7214,5.89957627 13.7214,8.63254237 L13.7214,14.2105593 L15.6279,14.2105593 L15.6279,16.6058305 L9.1452,16.6058305 L9.1452,14.2105593 L11.1399,14.2105593 L11.1399,9.30850847 C11.1399,7.22384746 9.8199,6.63201695 8.6172,6.63201695 C6.6519,6.63201695 4.6866,8.041 4.6866,10.2097966 L4.6866,14.2105593 L6.6813,14.2105593 L6.6813,16.6058305 L0.1986,16.6058305 L0.1986,14.2105593" id="Fill-7" fill="#373638" mask="url(#mask-4)"></path>
                <path d="M19.1778,6.99823729 L15.9219,6.99823729 L15.9219,4.60325424 L19.1778,4.60325424 L19.1778,0.26479661 L21.759,0.26479661 L21.759,4.60325424 L27.8313,4.60325424 L27.8313,6.99823729 L21.759,6.99823729 L21.759,12.0414746 C21.759,13.9008136 23.1087,14.6617797 24.6633,14.6617797 C26.13,14.6617797 27.3618,13.8725763 28.2714,12.9992373 L30.0021,14.717678 C28.8579,15.9010508 27.0978,17 24.6633,17 C21.5244,17 19.1778,15.3374576 19.1778,12.1261864 L19.1778,6.99823729" id="Fill-9" fill="#373638" mask="url(#mask-4)"></path>
                <path d="M44.0823,8.09718644 C43.7892,7.13942373 43.056,6.57583051 42.0879,6.57583051 C39.8292,6.57583051 37.6878,8.18161017 37.6878,11.111661 L37.6878,14.2108475 L42.0294,14.2108475 L42.0294,16.6055424 L32.3493,16.6055424 L32.3493,14.2108475 L35.1063,14.2108475 L35.1063,6.99852542 L32.9358,6.99852542 L32.9358,4.60354237 L37.6581,4.60354237 L37.6581,6.63201695 C38.4507,5.22332203 40.0638,4.20937288 42.2052,4.20937288 C44.6106,4.20937288 46.1064,5.53364407 46.5462,7.4209322 L44.0823,8.09718644" id="Fill-10" fill="#373638" mask="url(#mask-4)"></path>
                <path d="M51.0351,9.36527119 L58.7205,9.36527119 C58.3392,7.64654237 56.7552,6.49111864 54.9951,6.49111864 C53.0004,6.49111864 51.4752,7.67449153 51.0351,9.36527119 M61.4484,14.7741525 C60.1578,16.0701864 57.8697,16.9997119 55.3179,16.9997119 C51.123,16.9997119 48.1899,14.2949831 48.1899,10.6048305 C48.1899,6.91410169 51.0351,4.20908475 54.9951,4.20908475 C58.9257,4.20908475 61.683,7.11147458 61.683,11.0551864 L61.683,11.4778814 L50.9181,11.4778814 C51.3576,13.4781186 53.0883,14.6894407 55.347,14.6894407 C57.2244,14.6894407 58.8378,13.9572881 59.718,13.0277627 L61.4484,14.7741525" id="Fill-11" fill="#373638" mask="url(#mask-4)"></path>
                <path d="M67.0812,9.36527119 L74.7666,9.36527119 C74.3853,7.64654237 72.8013,6.49111864 71.0412,6.49111864 C69.0465,6.49111864 67.521,7.67449153 67.0812,9.36527119 M77.4942,14.7741525 C76.2039,16.0701864 73.9158,16.9997119 71.3637,16.9997119 C67.1688,16.9997119 64.2357,14.2949831 64.2357,10.6048305 C64.2357,6.91410169 67.0812,4.20908475 71.0412,4.20908475 C74.9718,4.20908475 77.7294,7.11147458 77.7294,11.0551864 L77.7294,11.4778814 L66.9639,11.4778814 C67.404,13.4781186 69.1344,14.6894407 71.3934,14.6894407 C73.2705,14.6894407 74.8839,13.9572881 75.7638,13.0277627 L77.4942,14.7741525" id="Fill-12" fill="#373638" mask="url(#mask-4)"></path>
            </g>
        </g>
    </g>
</svg>