<?xml version="1.0" encoding="UTF-8" standalone="no"?>
<svg width="1226px" height="260px" viewBox="0 0 1226 260" version="1.1" xmlns="http://www.w3.org/2000/svg" xmlns:xlink="http://www.w3.org/1999/xlink">
    <!-- Generator: Sketch 39.1 (31720) - http://www.bohemiancoding.com/sketch -->
    <title>lightbend-full-color</title>
    <desc>Created with Sketch.</desc>
    <defs></defs>
    <g id="Page-1" stroke="none" stroke-width="1" fill="none" fill-rule="evenodd">
        <g id="lightbend-full-color">
            <path d="M354,63.6 C354,59.64 357.239,56.4 361.02,56.4 C364.979,56.4 368.22,59.64 368.22,63.6 L368.22,170.155 L413.557,170.155 C417.156,170.155 420.036,173.215 420.036,176.815 C420.036,180.415 417.156,183.295 413.557,183.295 L361.02,183.295 C357.239,183.295 354,180.055 354,176.096 L354,63.6" id="Fill-1" fill="#FFFFFF"></path>
            <path d="M448.028,96.358 C448.028,92.578 451.088,89.339 454.868,89.339 C458.827,89.339 461.888,92.398 461.888,96.358 L461.888,177.175 C461.888,181.135 459.007,184.195 455.048,184.195 C451.088,184.195 448.028,181.135 448.028,177.175 L448.028,96.358 L448.028,96.358 Z M446.769,61.08 C446.769,56.58 450.368,53.7 454.868,53.7 C459.548,53.7 463.147,56.58 463.147,61.08 L463.147,63.42 C463.147,67.739 459.548,70.8 454.868,70.8 C450.368,70.8 446.769,67.739 446.769,63.42 L446.769,61.08 L446.769,61.08 Z" id="Fill-2" fill="#FFFFFF"></path>
            <path d="M572.222,132.357 L572.222,131.997 C572.222,112.918 555.663,100.498 538.023,100.498 C520.384,100.498 505.805,112.738 505.805,131.817 L505.805,132.177 C505.805,150.896 520.744,163.855 538.023,163.855 C555.663,163.855 572.222,151.076 572.222,132.357 L572.222,132.357 Z M499.325,201.475 C497.165,200.395 495.726,198.234 495.726,195.715 C495.726,192.654 498.785,189.595 502.024,189.595 C503.285,189.595 504.185,189.955 505.085,190.494 C514.805,196.975 525.964,200.574 538.023,200.574 C558.543,200.574 571.862,189.234 571.862,167.455 L571.862,156.476 C563.763,167.275 552.423,176.096 535.323,176.096 C513.005,176.096 491.585,159.355 491.585,132.537 L491.585,132.177 C491.585,104.998 513.185,88.259 535.323,88.259 C552.783,88.259 564.122,96.898 571.683,106.979 L571.683,96.358 C571.683,92.578 574.562,89.339 578.522,89.339 C582.481,89.339 585.542,92.578 585.542,96.358 L585.542,167.096 C585.542,181.495 581.222,192.475 573.662,200.034 C565.382,208.313 552.963,212.454 538.204,212.454 C523.984,212.454 511.024,208.674 499.325,201.475 L499.325,201.475 Z" id="Fill-3" fill="#FFFFFF"></path>
            <path d="M617.403,58.02 C617.403,54.24 620.463,51 624.242,51 C628.202,51 631.263,54.24 631.263,58.02 L631.263,106.438 C637.382,96.358 647.102,88.259 663.121,88.259 C685.62,88.259 698.759,103.378 698.759,125.518 L698.759,177.175 C698.759,181.135 695.699,184.195 691.92,184.195 C687.96,184.195 684.899,181.135 684.899,177.175 L684.899,128.938 C684.899,111.658 675.54,100.858 659.161,100.858 C643.142,100.858 631.263,112.558 631.263,130.018 L631.263,177.175 C631.263,181.135 628.382,184.195 624.423,184.195 C620.463,184.195 617.403,181.135 617.403,177.175 L617.403,58.02" id="Fill-4" fill="#FFFFFF"></path>
            <path d="M731.522,158.636 L731.522,102.479 L723.962,102.479 C720.723,102.479 717.843,99.599 717.843,96.358 C717.843,92.938 720.723,90.238 723.962,90.238 L731.522,90.238 L731.522,68.279 C731.522,64.5 734.401,61.26 738.362,61.26 C742.142,61.26 745.382,64.5 745.382,68.279 L745.382,90.238 L769.501,90.238 C772.921,90.238 775.8,93.118 775.8,96.358 C775.8,99.778 772.921,102.479 769.501,102.479 L745.382,102.479 L745.382,156.836 C745.382,168.176 751.681,172.315 761.041,172.315 C765.9,172.315 768.421,171.056 769.501,171.056 C772.74,171.056 775.44,173.755 775.44,176.995 C775.44,179.515 773.82,181.495 771.48,182.395 C767.521,184.015 763.2,184.915 757.801,184.915 C742.861,184.915 731.522,177.535 731.522,158.636" id="Fill-5" fill="#FFFFFF"></path>
            <path d="M885.237,137.037 L885.237,136.677 C885.237,114.718 870.118,100.679 852.479,100.679 C835.2,100.679 818.82,115.258 818.82,136.497 L818.82,136.856 C818.82,158.456 835.2,172.855 852.479,172.855 C870.479,172.855 885.237,159.536 885.237,137.037 L885.237,137.037 Z M805.501,58.02 C805.501,54.061 808.561,51 812.341,51 C816.3,51 819.36,54.061 819.36,58.02 L819.36,108.958 C826.92,97.799 837.899,88.259 854.999,88.259 C877.317,88.259 899.457,105.898 899.457,136.497 L899.457,136.856 C899.457,167.275 877.498,185.274 854.999,185.274 C837.72,185.274 826.56,175.915 819.36,165.476 L819.36,177.175 C819.36,180.955 816.48,184.195 812.521,184.195 C808.561,184.195 805.501,180.955 805.501,177.175 L805.501,58.02 L805.501,58.02 Z" id="Fill-6" fill="#FFFFFF"></path>
            <path d="M991.436,131.637 C989.995,114.718 980.276,99.958 961.736,99.958 C945.537,99.958 933.298,113.458 931.498,131.637 L991.436,131.637 L991.436,131.637 Z M963.896,185.455 C938.337,185.455 917.458,165.836 917.458,137.037 L917.458,136.677 C917.458,109.857 936.357,88.259 962.097,88.259 C989.636,88.259 1005.29,110.758 1005.29,135.417 C1005.29,139.196 1002.24,141.896 998.815,141.896 L931.498,141.896 C933.478,162.056 947.697,173.396 964.257,173.396 C975.776,173.396 984.235,168.896 991.075,162.596 C992.155,161.695 993.415,160.976 995.035,160.976 C998.455,160.976 1001.16,163.676 1001.16,166.916 C1001.16,168.535 1000.43,170.155 998.995,171.415 C990.175,179.875 979.735,185.455 963.896,185.455 L963.896,185.455 Z" id="Fill-7" fill="#FFFFFF"></path>
            <path d="M1028.34,96.358 C1028.34,92.578 1031.4,89.339 1035.18,89.339 C1039.14,89.339 1042.2,92.398 1042.2,96.358 L1042.2,106.438 C1048.32,96.358 1058.04,88.259 1074.06,88.259 C1096.55,88.259 1109.69,103.378 1109.69,125.518 L1109.69,177.175 C1109.69,181.135 1106.63,184.195 1102.85,184.195 C1098.89,184.195 1095.83,181.135 1095.83,177.175 L1095.83,128.938 C1095.83,111.658 1086.47,100.858 1070.1,100.858 C1054.08,100.858 1042.2,112.558 1042.2,130.018 L1042.2,177.175 C1042.2,181.135 1039.32,184.195 1035.36,184.195 C1031.4,184.195 1028.34,181.135 1028.34,177.175 L1028.34,96.358" id="Fill-8" fill="#FFFFFF"></path>
            <path d="M1145.88,136.497 L1145.88,136.856 C1145.88,158.816 1161.18,172.855 1178.64,172.855 C1195.92,172.855 1212.29,158.276 1212.29,136.856 L1212.29,136.497 C1212.29,115.078 1195.92,100.679 1178.64,100.679 C1160.64,100.679 1145.88,113.998 1145.88,136.497 L1145.88,136.497 Z M1225.61,177.175 C1225.61,181.135 1222.55,184.195 1218.77,184.195 C1214.81,184.195 1211.75,181.135 1211.75,177.175 L1211.75,164.576 C1204.19,175.735 1193.21,185.274 1176.12,185.274 C1153.8,185.274 1131.66,167.636 1131.66,137.037 L1131.66,136.677 C1131.66,106.258 1153.8,88.259 1176.12,88.259 C1193.39,88.259 1204.55,97.618 1211.75,108.058 L1211.75,58.02 C1211.75,54.061 1214.63,51 1218.59,51 C1222.55,51 1225.61,54.061 1225.61,58.02 L1225.61,177.175 L1225.61,177.175 Z" id="Fill-9" fill="#FFFFFF"></path>
            <path d="M0,194 L0,250 C0,255.523 4.477,260 10,260 L290,260 C295.523,260 300,255.523 300,250 L300,194 C251.354,207.538 201.128,214 150,214 C98.872,214 48.646,207.538 0,194" id="Fill-10" fill="#EB8A33"></path>
            <path d="M290,0 L10,0 C4.5,0 0,4.5 0,10 L0,175 C48.58,189.008 98.823,196 150,196 C201.177,196 251.42,189.008 300,175 L300,10 C300,4.477 295.523,0 290,0" id="Fill-11" fill="#EB8A33"></path>
        </g>
    </g>
</svg>