<?xml version="1.0" encoding="utf-8"?>
<!-- Generator: Adobe Illustrator 16.0.4, SVG Export Plug-In . SVG Version: 6.00 Build 0)  -->
<!DOCTYPE svg PUBLIC "-//W3C//DTD SVG 1.1//EN" "http://www.w3.org/Graphics/SVG/1.1/DTD/svg11.dtd">
<svg version="1.1" xmlns="http://www.w3.org/2000/svg" xmlns:xlink="http://www.w3.org/1999/xlink" x="0px" y="0px" width="2264px"
	 height="444.7px" viewBox="0 0 2264 444.7" enable-background="new 0 0 2264 444.7" xml:space="preserve">
<g id="bg" display="none">
	<rect x="726.9" y="-83.7" display="inline" fill="#666666" width="810" height="611"/>
</g>
<g id="logo">
	<g id="icon">
		<polygon fill="#00BA84" points="251.1,0 132.9,207.5 369.2,207.5 		"/>
		<polygon fill="#00BA84" points="103.4,281.7 0,444.7 206.8,444.7 206.8,281.7 		"/>
		<polygon fill="#00BA84" points="295.4,281.7 398.8,281.7 502.1,444.7 295.4,444.7 		"/>
	</g>
	<g id="type">
		<path fill="#3C3D3E" d="M663.6,161.5v217.4h-59.9V161.5h-76v-52h212v52H663.6z"/>
		<path fill="#3C3D3E" d="M1024.9,109.5V163H891.3v55.5h120.2v51.3H891.3v55.9h137.9v53.2H831.4V109.5H1024.9z"/>
		<path fill="#3C3D3E" d="M1120.9,378.9V109.5h59.9v215.8h114.4v53.6H1120.9z"/>
		<path fill="#3C3D3E" d="M1574.8,109.5h59.9v269.4h-59.9l-127.9-168.8v168.8H1387V109.5h56.1l131.7,173.4V109.5z"/>
		<path fill="#3C3D3E" d="M1864.3,378.9h-59.9V272.5l-92.9-163h64.9l58,100.2l58-100.2h64.9l-92.9,163V378.9z"/>
		<path fill="#3C3D3E" d="M2184.9,109.5h72.2l-83.7,129.9l90.6,139.5h-73l-57.2-88.7l-56.8,88.7h-72.2l90.2-138L2011,109.5h71.8
			l51.1,79.8L2184.9,109.5z"/>
	</g>
</g>
</svg>
