<?xml version="1.0" encoding="UTF-8" standalone="no"?>
<svg width="631px" height="233px" viewBox="0 0 631 233" version="1.1" xmlns="http://www.w3.org/2000/svg" xmlns:xlink="http://www.w3.org/1999/xlink">
    <!-- Generator: Sketch 3.8.3 (29802) - http://www.bohemiancoding.com/sketch -->
    <title>ChicagoRuby-LightBG</title>
    <desc>Created with Sketch.</desc>
    <defs></defs>
    <g id="Page-1" stroke="none" stroke-width="1" fill="none" fill-rule="evenodd">
        <g id="LightBG" transform="translate(-35.000000, -26.000000)">
            <g id="ChicagoRuby-LightBG" transform="translate(35.000000, 26.000000)">
                <g id="Group">
                    <g id="mark" transform="translate(439.000000, 20.000000)">
                        <path d="M0.932422788,18.3019268 L38.6224528,0.966863115 L67.1734584,0.966863115 L67.1734584,84.5106483 L67.1675832,84.5223989 L67.1734584,84.5106483 L67.1734584,84.5165236 L67.1675832,84.5223989 L67.1646455,84.5223989 L67.1646455,84.5194613 L3.98463956,21.3512059 L0.932422788,18.3019268 L0.932422788,18.3019268 L0.932422788,18.3019268 Z M67.1734584,0.966863115 L95.7215264,0.966863115 L133.405681,18.3019268 L130.353464,21.3512059 L67.1734584,84.5165236 L67.1734584,84.5106483 L67.1793337,84.4988978 L67.1734584,84.5106483 L67.1734584,0.966863115 L67.1734584,0.966863115 L67.1734584,0.966863115 Z" id="Fill-2" fill="#FFFFFF"></path>
                        <polyline id="Fill-3" fill="#D1222B" points="0.571092025 18.2989892 38.4638198 0.963925467 52.335396 0.963925467 32.7559688 18.2989892 0.571092025 18.2989892"></polyline>
                        <polyline id="Fill-4" fill="#DD654E" points="67.1675832 84.5165236 3.63799704 21.3512059 34.3364237 21.3512059 67.1675832 84.5165236"></polyline>
                        <polyline id="Fill-5" fill="#DD654E" points="130.697169 21.3512059 67.1675832 84.5194613 99.995805 21.3512059 130.697169 21.3512059"></polyline>
                        <polyline id="Fill-6" fill="#D1222B" points="95.8684088 0.963925467 133.764074 18.2989892 101.585073 18.2989892 81.9997703 0.963925467 95.8684088 0.963925467"></polyline>
                        <polyline id="Fill-7" fill="#E48469" points="95.9183489 21.3512059 67.1675832 84.5194613 38.4168174 21.3512059 95.9183489 21.3512059"></polyline>
                        <polyline id="Fill-8" fill="#DA5542" points="80.1578647 0.963925467 97.3078566 18.2989892 37.0273097 18.2989892 54.1773016 0.963925467 80.1578647 0.963925467"></polyline>
                    </g>
                    <g id="ruby" fill="#D1222B">
                        <path d="M117.308116,64.1473582 L109.511597,71.9468149 L109.511597,115.811782 C109.511597,126.472508 112.352303,136.498703 117.308116,145.176516 L117.308116,64.1473582 L117.308116,64.1473582 L117.308116,64.1473582 Z M117.308116,41.3365177 L117.308116,49.1359744 L94.4972752,71.9468149 L59.6068242,71.9468149 C43.6671435,71.9468149 30.6386725,84.9811612 30.6386725,100.897341 L30.6386725,179.329618 L0.0225,148.510747 L0.0225,100.897341 C0.0225,68.1660613 26.8226671,41.3365177 59.6068242,41.3365177 L117.308116,41.3365177 L117.308116,41.3365177 L117.308116,41.3365177 Z M117.308116,49.1359744 L125.107572,41.3365177 L117.308116,41.3365177 L117.308116,49.1359744 L117.308116,49.1359744 L117.308116,49.1359744 Z M117.308116,145.176516 L117.308116,64.1473582 L140.098393,41.3600189 L140.098393,115.811782 C140.098393,131.760276 153.147427,144.794622 169.087108,144.794622 L220.143439,144.794622 C236.05668,144.794622 249.102777,131.760276 249.102777,115.811782 L249.102777,101.161729 L248.976458,101.161729 L248.976458,71.9468149 L279.586756,41.3365177 L279.586756,89.6138329 C279.651384,90.8417699 279.66901,92.0726447 279.66901,93.3299582 L279.66901,115.811782 C279.66901,148.584189 252.904094,175.36673 220.143439,175.36673 L169.087108,175.36673 C146.984241,175.36673 127.589885,163.175489 117.308116,145.176516 L117.308116,145.176516 L117.308116,145.176516 Z M320.799026,71.9468149 L320.799026,71.9350643 L375.27478,71.9350643 L375.27478,41.3365177 L320.799026,41.3365177 L320.799026,0.124247123 L290.194604,30.7257314 L290.194604,115.635523 C290.194604,148.272798 317.079963,174.949584 349.916998,174.949584 L375.27478,174.949584 L375.27478,144.424478 C366.861354,144.462668 358.433241,144.500857 349.916998,144.500857 C333.942065,144.500857 320.860717,131.519389 320.860717,115.635523 L320.860717,71.9468149 L320.799026,71.9468149 L320.799026,71.9468149 L320.799026,71.9468149 Z M375.27478,71.9350643 L400.826446,71.9350643 C408.161754,71.9350643 414.856655,74.7140798 419.971101,79.2321831 L420.156173,79.4201926 L422.306532,81.5323619 L422.456352,81.7115585 C429.586025,88.9264231 429.677092,90.2601155 429.747595,101.505434 L429.747595,115.385823 L429.744658,115.750091 L429.735845,116.117298 L429.735845,116.12611 L429.721157,116.478628 L429.712344,116.85171 L429.712344,116.866398 L429.685905,117.21304 L429.659466,117.577309 L429.659466,117.597872 L429.627152,117.93864 L429.600713,118.302908 L429.597775,118.332284 L429.556648,118.652488 L429.515521,119.016757 L429.506708,119.057884 L429.468519,119.369274 L429.418579,119.730605 L429.412704,119.777608 L429.356888,120.080185 L429.356888,120.088998 L429.157128,121.205305 L429.089562,121.487319 L429.083687,121.528446 L428.933867,122.177666 L428.851613,122.518434 L428.833987,122.600688 C428.572536,123.602426 428.25527,124.580663 427.896877,125.541274 L427.770558,125.867353 L427.729431,125.973108 L427.538484,126.449007 L427.503232,126.540074 C427.194779,127.283299 426.842261,128.000086 426.472117,128.716872 L426.310547,129.022387 L426.295859,129.048826 C425.441003,130.652782 424.424576,132.162734 423.287706,133.566929 L423.231891,133.631558 C422.673738,134.318968 422.086208,134.982876 421.463427,135.617408 C416.207974,140.996243 408.893229,144.345162 400.826446,144.345162 C392.272014,144.345162 383.78221,144.386289 375.27478,144.424478 L375.27478,174.949584 L400.826446,174.949584 C428.45503,174.949584 451.8534,155.860744 458.480735,130.220948 L458.468985,130.20626 C459.367905,126.731021 459.952497,123.138277 460.202197,119.457404 L460.222761,119.472092 L464.074018,123.317474 L464.253215,123.511359 L484.555303,143.798759 C457.664069,170.68118 465.760228,162.526268 438.842555,189.441004 L438.842555,232.703753 C502.707033,168.721769 566.689017,104.848478 630.6475,40.957561 C604.055906,40.957561 613.988095,40.9105587 587.393564,40.957561 C561.266118,67.1114455 535.106358,93.2506417 508.946599,119.378087 L506.179334,122.145352 C485.139895,101.152916 464.162147,80.1311036 443.152086,59.1269169 L442.605683,58.5599508 L442.332482,58.3249389 C431.557187,47.8169703 416.913009,41.3365177 400.826446,41.3365177 L375.27478,41.3365177 L375.27478,71.9350643 L375.27478,71.9350643 L375.27478,71.9350643 Z" id="Fill-1"></path>
                    </g>
                    <g id="chicago" transform="translate(12.000000, 1.000000)" fill="#555744">
                        <path d="M24.5697848,30.0341845 L36.0031127,30.0341845 L36.0031127,23.2981565 L13.3420923,23.2981565 C9.83453999,23.2981565 6.97914567,20.4486375 6.97327037,16.9469605 L6.97327037,13.7243601 C6.97914567,10.2285584 9.83453999,7.37903936 13.3420923,7.37903936 L36.0031127,7.37903936 L36.0031127,0.648886687 L13.3420923,0.648886687 C6.38280302,0.648886687 0.663201425,6.145227 0.275431826,12.9958233 L0.246055341,12.9958233 L0.246055341,17.6989985 L0.275431826,17.6989985 C0.663201425,24.5466571 6.38280302,30.0341845 13.3420923,30.0341845 L24.5697848,30.0341845 L24.5697848,30.0341845 L24.5697848,30.0341845 Z M79.9385834,18.0133269 L79.9385834,30.0341845 L73.2113684,30.0341845 L73.2113684,18.8505567 L49.2489697,18.8505567 L49.246032,30.0341845 L42.5100041,30.0341845 L42.5100041,0.933838589 L49.2489697,0.933838589 L49.2489697,12.1233417 L73.2113684,12.120404 L73.2113684,0.933838589 L79.9385834,0.933838589 L79.9385834,18.0133269 L79.9385834,18.0133269 L79.9385834,18.0133269 Z M135.445452,23.3069694 L135.451327,23.3069694 L135.451327,30.0341845 L112.790306,30.0341845 C105.833955,30.0341845 100.099665,24.5466571 99.7001448,17.6989985 L99.6795812,17.6989985 L99.6795812,12.9958233 L99.7001448,12.9958233 C100.099665,6.145227 105.833955,0.648886687 112.790306,0.648886687 L135.451327,0.648886687 L135.451327,7.37903936 L112.790306,7.37903936 C109.282754,7.37903936 106.421484,10.2285584 106.412672,13.7243601 L106.412672,16.9469605 C106.421484,20.4486375 109.282754,23.2981565 112.790306,23.2981565 L135.451327,23.2981565 L135.445452,23.3069694 L135.445452,23.3069694 L135.445452,23.3069694 Z M86.4454748,30.0341845 L93.1726898,30.0341845 L93.1726898,0.933838589 L86.4454748,0.933838589 L86.4454748,30.0341845 L86.4454748,30.0341845 Z M148.67662,30.0341845 L141.958218,30.0341845 L141.958218,12.9958233 L141.975844,12.9958233 C142.372427,6.145227 148.097904,0.648886687 155.045442,0.648886687 L160.671039,0.648886687 L160.671039,7.37903936 L155.045442,7.37903936 C152.166547,7.37903936 149.707735,9.32963796 148.941009,11.9823345 L160.671039,11.9823345 L160.671039,18.697799 L148.67662,18.697799 L148.67662,30.0341845 L148.67662,30.0341845 L148.67662,30.0341845 Z M221.659559,23.3069694 L221.659559,30.0341845 L198.995601,30.0341845 C192.03925,30.0341845 186.310835,24.5466571 185.908377,17.6989985 L185.884876,17.6989985 L185.884876,12.9958233 L185.908377,12.9958233 C186.310835,6.145227 192.03925,0.648886687 198.995601,0.648886687 L221.659559,0.648886687 L221.659559,7.37903936 L198.995601,7.37903936 C195.490987,7.37903936 192.626779,10.2285584 192.620904,13.7243601 L192.620904,16.9469605 C192.626779,20.4486375 195.490987,23.2981565 198.995601,23.2981565 L214.923531,23.2981565 L214.923531,18.7095496 L206.736305,18.7095496 L206.736305,11.9735216 L221.659559,11.9735216 L221.659559,23.3069694 L221.659559,23.3069694 L221.659559,23.3069694 Z M246.876334,0.648886687 L246.876334,7.37903936 L241.256612,7.37903936 C237.769623,7.37903936 234.902479,10.2285584 234.890728,13.7243601 L234.890728,16.9469605 C234.902479,20.4486375 237.769623,23.2981565 241.256612,23.2981565 L246.876334,23.2981565 L246.876334,30.0341845 L241.256612,30.0341845 C234.317887,30.0341845 228.580659,24.5466571 228.192889,17.6989985 L228.166451,17.6989985 L228.166451,12.9958233 L228.192889,12.9958233 C228.580659,6.145227 234.317887,0.648886687 241.256612,0.648886687 L246.876334,0.648886687 L246.876334,0.648886687 L246.876334,0.648886687 Z M160.671039,0.648886687 L166.276072,0.648886687 C173.355805,0.648886687 179.163536,6.3449871 179.366234,13.3689046 L179.366234,13.3806552 L179.377985,13.4570341 L179.377985,13.5451635 L179.380922,13.6186047 L179.380922,18.7418637 L179.377985,18.8153049 L179.377985,18.8946214 L179.372109,18.9269356 L179.372109,30.0341845 L172.65077,30.0341845 L172.65077,18.697799 L160.671039,18.697799 L160.671039,11.9823345 L172.404007,11.9823345 C171.622593,9.32963796 169.160843,7.37903936 166.276072,7.37903936 L160.671039,7.37903936 L160.671039,0.648886687 L160.671039,0.648886687 L160.671039,0.648886687 Z M246.876334,30.0341845 L246.876334,23.2981565 L252.496055,23.2981565 C255.739219,23.2981565 258.444794,20.8481577 258.812,17.6989985 L258.809062,17.6989985 C258.817875,17.5844302 258.832563,17.4904254 258.847251,17.402296 L258.847251,17.343543 L258.856064,17.3141665 C258.859002,17.1878476 258.86194,17.0527158 258.86194,16.9410852 L258.86194,13.7507989 C258.86194,13.6039165 258.856064,13.4922859 258.847251,13.3454034 L258.847251,13.2837128 C258.832563,13.1926457 258.817875,13.0957033 258.809062,12.9958233 L258.812,12.9958233 C258.444794,9.84372644 255.739219,7.37903936 252.496055,7.37903936 L246.876334,7.37903936 L246.876334,0.648886687 L252.496055,0.648886687 C259.564038,0.648886687 265.380582,6.3449871 265.571529,13.3689046 L265.571529,13.3806552 L265.583279,13.4570341 L265.583279,13.6538565 L265.586217,13.7096718 L265.589155,13.7507989 L265.592092,13.7507989 L265.589155,16.9410852 L265.592092,16.9410852 L265.589155,16.9469605 L265.586217,16.9851499 L265.583279,17.0409652 L265.583279,17.2054735 L265.571529,17.3082912 L265.571529,17.3141665 C265.380582,24.346897 259.564038,30.0341845 252.496055,30.0341845 L246.876334,30.0341845 L246.876334,30.0341845 L246.876334,30.0341845 Z" id="Fill-9"></path>
                    </g>
                </g>
            </g>
        </g>
    </g>
</svg>