<?xml version="1.0" encoding="UTF-8" standalone="no"?>
<svg width="468px" height="84px" viewBox="0 0 468 84" version="1.1" xmlns="http://www.w3.org/2000/svg" xmlns:xlink="http://www.w3.org/1999/xlink">
    <!-- Generator: Sketch 3.6.1 (26313) - http://www.bohemiancoding.com/sketch -->
    <title>RubyCaribe-Horizontal-Black</title>
    <desc>Created with Sketch.</desc>
    <defs>
        <path id="path-1" d="M121.683,83.94 L0,83.94 L0,42.0945 L0,0.249 L121.683,0.249 L121.683,83.94 L121.683,83.94 Z"></path>
    </defs>
    <g id="Page-1" stroke="none" stroke-width="1" fill="none" fill-rule="evenodd">
        <g id="RubyCaribe-Horizontal-Black" transform="translate(-17.000000, -16.000000)">
            <g transform="translate(17.000000, 16.000000)" id="logo-horizontal">
                <g>
                    <g id="Group">
                        <path d="M2.431,21.437 L41.37,60.377 L41.37,40.908 L60.841,40.908 L21.898,1.968 L2.431,21.437" id="Fill-1" fill="#5AB2D5"></path>
                        <path d="M21.898,1.968 L60.841,40.908 L80.312,21.437 L60.841,1.968 L21.898,1.968" id="Fill-2" fill="#FFFFFF"></path>
                        <path d="M60.841,1.968 L99.778,1.968 L119.251,21.437 L80.312,60.377 L80.312,21.437 L60.841,1.968" id="Fill-3" fill="#C0372B"></path>
                        <g id="Group-7">
                            <mask id="mask-2" fill="white">
                                <use xlink:href="#path-1"></use>
                            </mask>
                            <g id="Clip-5"></g>
                            <path d="M60.841,40.908 L60.841,79.848 L80.312,60.377 L80.312,21.437 L60.841,40.908" id="Fill-4" fill="#E2B92B" mask="url(#mask-2)"></path>
                            <path d="M26.054,3.688 L60.128,3.688 L77.878,21.437 L60.841,38.475 L26.054,3.688 L26.054,3.688 Z M42.083,39.187 L34.067,31.174 L41.37,23.871 L56.688,39.187 L42.083,39.187 L42.083,39.187 Z M39.651,56.225 L4.864,21.437 L21.898,4.4 L38.939,21.437 L29.204,31.174 L39.651,41.62 L39.651,56.225 L39.651,56.225 Z M99.067,3.688 L116.815,21.437 L82.03,56.225 L82.03,20.725 L64.993,3.688 L99.067,3.688 L99.067,3.688 Z M62.562,75.695 L62.562,41.62 L78.591,25.59 L78.591,59.666 L62.562,75.695 L62.562,75.695 Z M59.12,84 L121.683,21.437 L100.493,0.249 L21.189,0.249 L0,21.437 L43.091,64.529 L43.091,42.628 L59.12,42.628 L59.12,84 L59.12,84 Z" id="Fill-6" fill="#1B1A18" mask="url(#mask-2)"></path>
                        </g>
                        <path d="M59.605,16.57 C59.605,18.576 57.979,20.201 55.974,20.201 C53.968,20.201 52.343,18.576 52.343,16.57 C52.343,14.566 53.968,12.939 55.974,12.939 C57.979,12.939 59.605,14.566 59.605,16.57" id="Fill-8" fill="#1B1A18"></path>
                    </g>
                    <path d="M169.913,38.236 C176.138,38.236 178.191,35.092 178.191,31.691 C178.191,28.291 176.074,25.146 169.913,25.146 L163.626,25.146 L163.626,38.236 L169.913,38.236 L169.913,38.236 Z M150.921,52.416 L156.183,52.416 L156.183,25.146 L150.921,25.146 L150.921,19.244 L169.786,19.244 C181.335,19.244 185.698,25.596 185.698,31.563 C185.698,36.119 183.131,40.289 177.806,42.021 L183.709,52.416 L188.521,52.416 L188.521,58.319 L178.64,58.319 L170.62,44.011 L163.626,44.011 L163.626,52.416 L168.887,52.416 L168.887,58.319 L150.921,58.319 L150.921,52.416 L150.921,52.416 Z" id="Fill-9" fill="#1B1A18"></path>
                    <path d="M195.063,50.428 L195.063,36.247 L190.764,36.247 L190.764,30.601 L202.314,30.601 L202.314,49.722 C202.314,52.031 203.148,53.314 205.714,53.314 C208.474,53.314 211.232,51.839 213.414,50.17 L213.414,36.247 L208.601,36.247 L208.601,30.601 L220.664,30.601 L220.664,52.673 L224.899,52.673 L224.899,58.319 L213.606,58.319 L213.606,54.918 C210.912,57.1 207.511,59.025 203.34,59.025 C198.271,59.025 195.063,56.138 195.063,50.428" id="Fill-10" fill="#1B1A18"></path>
                    <path d="M249.793,43.947 C249.793,39.391 248.125,35.285 243.055,35.285 C241.002,35.285 239.077,35.926 237.409,36.824 L237.409,53.443 C238.18,53.508 239.077,53.571 239.976,53.571 C246.585,53.571 249.793,50.299 249.793,43.947 L249.793,43.947 Z M230.158,57.998 L230.158,18.603 L225.923,18.603 L225.923,12.956 L237.409,12.956 L237.409,31.82 C239.463,30.665 241.9,29.894 244.851,29.894 C252.68,29.894 257.172,35.221 257.172,43.883 C257.172,54.148 250.819,59.025 240.297,59.025 C236.832,59.025 232.66,58.512 230.158,57.998 L230.158,57.998 Z" id="Fill-11" fill="#1B1A18"></path>
                    <path d="M261.853,69.676 L263.906,64.863 C265.254,65.57 266.665,66.275 268.59,66.275 C270.066,66.275 271.99,65.891 272.889,63.067 L274.365,58.319 L269.039,58.319 L262.623,36.184 L259.351,36.184 L259.351,30.601 L273.787,30.601 L273.787,36.247 L270.066,36.247 L275.199,55.753 L281.486,36.247 L277.701,36.247 L277.701,30.601 L291.689,30.601 L291.689,36.184 L288.545,36.184 L279.241,63.966 C277.572,68.971 274.75,71.793 269.617,71.793 C266.729,71.793 263.842,70.896 261.853,69.676" id="Fill-12" fill="#1B1A18"></path>
                    <path d="M295.191,39.006 C295.191,26.045 303.853,18.475 316.043,18.475 C322.33,18.475 328.17,20.463 330.607,21.618 L330.607,32.847 L323.486,32.847 L323.486,25.66 C321.625,25.146 318.865,24.697 316.428,24.697 C308.408,24.697 302.891,29.639 302.891,38.621 C302.891,47.861 308.793,52.673 316.877,52.673 C322.203,52.673 327.078,50.619 330.543,48.566 L330.543,55.688 C327.85,57.1 322.779,59.09 316.236,59.09 C303.404,59.09 295.191,51.582 295.191,39.006" id="Fill-13" fill="#1B1A18"></path>
                    <path d="M351.842,50.877 L351.842,46.449 L347.607,46.449 C343.822,46.449 341.641,47.412 341.641,50.234 C341.641,51.967 342.475,53.893 345.619,53.893 C348.313,53.893 350.367,52.416 351.842,50.877 L351.842,50.877 Z M334.389,50.556 C334.389,43.883 340.1,41.957 347.287,41.957 L351.842,41.957 L351.842,40.225 C351.842,36.889 350.494,35.413 345.875,35.413 C342.539,35.413 338.816,36.184 336.699,36.824 L336.699,31.435 C339.201,30.665 343.438,29.894 347.414,29.894 C354.857,29.894 359.092,32.525 359.092,40.098 L359.092,52.673 L363.199,52.673 L363.199,58.319 L352.227,58.319 L352.227,55.176 C350.43,57.036 347.607,59.025 343.438,59.025 C338.24,59.025 334.389,56.01 334.389,50.556 L334.389,50.556 Z" id="Fill-14" fill="#1B1A18"></path>
                    <path d="M365.893,52.673 L370.127,52.673 L370.127,36.247 L365.893,36.247 L365.893,30.601 L377.121,30.601 L377.121,35.67 C378.533,33.039 381.291,29.894 386.297,29.894 L386.873,29.894 L386.873,37.209 L385.719,37.209 C381.611,37.209 378.918,38.044 377.377,39.006 L377.377,52.673 L382.189,52.673 L382.189,58.319 L365.893,58.319 L365.893,52.673" id="Fill-15" fill="#1B1A18"></path>
                    <path d="M397.393,16.613 C400.152,16.613 402.398,18.859 402.398,21.618 C402.398,24.377 400.152,26.623 397.393,26.623 C394.635,26.623 392.389,24.377 392.389,21.618 C392.389,18.859 394.635,16.613 397.393,16.613 L397.393,16.613 Z M389.887,52.673 L394.121,52.673 L394.121,36.247 L389.887,36.247 L389.887,30.601 L401.371,30.601 L401.371,52.673 L405.605,52.673 L405.605,58.319 L389.887,58.319 L389.887,52.673 L389.887,52.673 Z" id="Fill-16" fill="#1B1A18"></path>
                    <path d="M430.5,43.947 C430.5,39.391 428.832,35.285 423.764,35.285 C421.711,35.285 419.785,35.926 418.117,36.824 L418.117,53.443 C418.887,53.508 419.785,53.571 420.684,53.571 C427.293,53.571 430.5,50.299 430.5,43.947 L430.5,43.947 Z M410.867,57.998 L410.867,18.603 L406.631,18.603 L406.631,12.956 L418.117,12.956 L418.117,31.82 C420.17,30.665 422.609,29.894 425.56,29.894 C433.389,29.894 437.879,35.221 437.879,43.883 C437.879,54.148 431.527,59.025 421.004,59.025 C417.539,59.025 413.369,58.512 410.867,57.998 L410.867,57.998 Z" id="Fill-17" fill="#1B1A18"></path>
                    <path d="M448.914,41.701 L461.168,41.701 C460.912,38.429 459.629,35.156 455.395,35.156 C451.223,35.156 449.426,38.236 448.914,41.701 L448.914,41.701 Z M441.662,44.46 C441.662,36.055 446.475,29.894 455.266,29.894 C463.992,29.894 467.971,36.055 467.971,43.689 C467.971,44.652 467.906,45.743 467.713,46.769 L448.978,46.769 C449.684,51.133 452.314,53.508 457.318,53.508 C461.103,53.508 464.057,52.096 466.238,50.94 L466.238,56.523 C464.057,57.742 460.719,59.025 456.228,59.025 C446.475,59.025 441.662,52.865 441.662,44.46 L441.662,44.46 Z" id="Fill-18" fill="#1B1A18"></path>
                </g>
            </g>
        </g>
    </g>
</svg>